<svg preserveAspectRatio="none" width="100%" height="100%" overflow="visible" style="display: block;" viewBox="0 0 58 58" fill="none" xmlns="http://www.w3.org/2000/svg">
<g id="Glyph">
<path id="Vector" d="M56.26 21.7003C56.0855 21.7422 55.9346 21.8515 55.8404 22.0044C55.7461 22.1572 55.7162 22.3411 55.7571 22.5159C56.2525 24.6187 56.5034 26.7717 56.5047 28.9321C56.496 36.2422 53.5882 43.2503 48.4192 48.4193C43.2502 53.5883 36.2421 56.496 28.9321 56.5048C22.9281 56.5258 17.0853 54.5634 12.3114 50.9223C12.9524 49.9666 13.2085 48.8039 13.0284 47.6673C12.8483 46.5307 12.2453 45.5041 11.3403 44.7934C10.4353 44.0826 9.29505 43.7401 8.14816 43.8346C7.00126 43.929 5.93243 44.4534 5.15586 45.3027C4.37929 46.1519 3.95236 47.2633 3.96063 48.414C3.9689 49.5648 4.41176 50.6699 5.20046 51.5079C5.98915 52.3459 7.06541 52.8549 8.21355 52.9328C9.36168 53.0108 10.4969 52.6519 11.3916 51.9282C16.4181 55.7979 22.5886 57.8861 28.9321 57.8642C33.3021 57.8595 37.6144 56.8659 41.546 54.958C45.4775 53.0501 48.9264 50.2772 51.6342 46.8472C54.3419 43.4171 56.2384 39.4188 57.1816 35.1517C58.1247 30.8847 58.0901 26.4595 57.0802 22.2078C57.0599 22.1204 57.0226 22.038 56.9703 21.9651C56.9181 21.8923 56.852 21.8305 56.7757 21.7833C56.6995 21.7362 56.6147 21.7045 56.5262 21.6903C56.4377 21.676 56.3472 21.6794 56.26 21.7003Z" fill="var(--fill-0, white)"/>
<path id="Vector_2" d="M1.3594 28.9321C1.3597 24.0276 2.66812 19.2119 5.14976 14.9815C7.6314 10.7511 11.1964 7.25917 15.4773 4.86571C19.7582 2.47226 24.6 1.2639 29.5035 1.36522C34.407 1.46655 39.1948 2.87388 43.3732 5.44214C42.9419 6.36482 42.8729 7.41582 43.1798 8.38698C43.4867 9.35815 44.1471 10.1786 45.0303 10.6859C45.9134 11.1932 46.9549 11.3504 47.9484 11.1262C48.9419 10.902 49.815 10.3128 50.3948 9.47544C50.9745 8.63804 51.2186 7.61345 51.0787 6.6046C50.9389 5.59576 50.4252 4.67623 49.6395 4.02816C48.8538 3.38008 47.8533 3.05072 46.8363 3.10531C45.8193 3.1599 44.8598 3.59446 44.148 4.32292C39.7652 1.61354 34.7384 0.123707 29.5871 0.00737671C24.4358 -0.108954 19.3469 1.15244 14.8462 3.66121C10.3456 6.16997 6.59659 9.83508 3.98659 14.2778C1.3766 18.7204 0.00033144 23.7795 2.72828e-05 28.9321C-0.0024094 30.6983 0.158378 32.4609 0.48034 34.1974C0.507975 34.3539 0.589936 34.4956 0.711786 34.5975C0.833635 34.6995 0.987556 34.7552 1.14643 34.7548C1.18759 34.7548 1.22862 34.7502 1.26878 34.7412C1.44596 34.7092 1.6032 34.6082 1.706 34.4604C1.80879 34.3126 1.84873 34.13 1.81706 33.9528C1.51161 32.2967 1.35842 30.6161 1.3594 28.9321Z" fill="var(--fill-0, white)"/>
<path id="Vector_3" d="M24.8539 24.4417V24.8495H33.0102V24.4417C32.9467 18.9317 24.9174 18.9317 24.8539 24.4417Z" fill="var(--fill-0, white)"/>
<path id="Vector_4" d="M47.9406 14.8082C40.2919 14.8853 32.9332 10.1592 30.1192 8.12011C29.7737 7.87049 29.3583 7.73613 28.9321 7.73613C28.5058 7.73613 28.0904 7.87049 27.7449 8.12011C24.931 10.1592 17.5541 14.8671 9.92346 14.8082C9.65247 14.8055 9.38362 14.8565 9.13239 14.9581C8.88116 15.0598 8.65252 15.2101 8.45963 15.4005C8.26673 15.5908 8.1134 15.8175 8.00846 16.0673C7.90352 16.3172 7.84903 16.5853 7.84815 16.8564C7.85268 27.319 9.94612 42.2857 28.0122 51.4298C28.2971 51.575 28.6123 51.6507 28.9321 51.6507C29.2518 51.6507 29.567 51.575 29.8519 51.4298C47.918 42.2857 50.0114 27.319 50.016 16.8564C50.0119 16.3097 49.7911 15.787 49.402 15.403C49.0129 15.019 48.4873 14.8051 47.9406 14.8082ZM36.4086 35.4979C36.4086 36.3992 36.0506 37.2636 35.4132 37.901C34.7759 38.5383 33.9115 38.8964 33.0102 38.8964H24.8539C23.9526 38.8964 23.0882 38.5383 22.4509 37.901C21.8135 37.2636 21.4555 36.3992 21.4555 35.4979V28.2479C21.4558 27.587 21.6489 26.9404 22.0111 26.3875C22.3732 25.8346 22.8888 25.3993 23.4946 25.1349V24.4326C23.5761 17.16 34.288 17.16 34.3696 24.4326V25.1349C34.9753 25.3993 35.4909 25.8346 35.853 26.3875C36.2152 26.9404 36.4083 27.587 36.4086 28.2479V35.4979Z" fill="var(--fill-0, white)"/>
<path id="Vector_5" d="M30.0449 31.0926C30.0349 31.0318 30.0377 30.9695 30.0533 30.9099C30.069 30.8502 30.097 30.7945 30.1356 30.7464C30.2873 30.527 30.3762 30.2701 30.3925 30.0038C30.4088 29.7374 30.3519 29.4717 30.228 29.2353C30.104 28.999 29.9178 28.801 29.6895 28.6629C29.4611 28.5248 29.1994 28.4518 28.9325 28.4518C28.6657 28.4518 28.4039 28.5248 28.1755 28.6629C27.9472 28.801 27.761 28.999 27.6371 29.2353C27.5132 29.4717 27.4563 29.7374 27.4726 30.0038C27.4888 30.2701 27.5777 30.527 27.7295 30.7464C27.7679 30.794 27.7958 30.8492 27.8114 30.9083C27.827 30.9674 27.83 31.0291 27.8201 31.0895C27.7136 31.6201 27.4123 33.1371 27.1998 34.1902C27.1739 34.3215 27.1775 34.457 27.2103 34.5868C27.243 34.7166 27.3041 34.8375 27.3891 34.9409C27.4742 35.0443 27.5811 35.1275 27.7021 35.1846C27.8232 35.2418 27.9554 35.2714 28.0892 35.2714H29.7749C29.909 35.2714 30.0414 35.2417 30.1626 35.1844C30.2839 35.127 30.3909 35.0435 30.4759 34.9398C30.561 34.8362 30.6219 34.7149 30.6545 34.5848C30.687 34.4547 30.6902 34.319 30.6639 34.1875L30.0449 31.0926Z" fill="var(--fill-0, white)"/>
</g>
</svg>
