<svg preserveAspectRatio="none" width="100%" height="100%" overflow="visible" style="display: block;" viewBox="0 0 58 58" fill="none" xmlns="http://www.w3.org/2000/svg">
<g id="risk-factors (1)">
<path id="Vector" fill-rule="evenodd" clip-rule="evenodd" d="M33.6691 4.18767L20.3387 27.2765C21.9687 28.0319 23.2916 29.3217 24.0879 30.9321C24.8842 32.5425 25.1061 34.3767 24.7168 36.1305H52.1113C52.5472 36.1316 52.9758 36.0177 53.3536 35.8002C53.7314 35.5827 54.0451 35.2694 54.2631 34.8918C54.4811 34.5143 54.5956 34.0859 54.595 33.65C54.5944 33.214 54.4788 32.7859 54.2599 32.409L37.9663 4.18767C37.7493 3.80958 37.4364 3.49544 37.0591 3.27699C36.6819 3.05854 36.2537 2.94351 35.8177 2.94351C35.3818 2.94351 34.9536 3.05854 34.5763 3.27699C34.199 3.49544 33.8861 3.80958 33.6691 4.18767ZM39.3574 38.6806C39.4411 38.5944 39.5411 38.5257 39.6516 38.4785C39.762 38.4313 39.8808 38.4066 40.0009 38.4057C40.121 38.4048 40.2401 38.4278 40.3513 38.4734C40.4624 38.5189 40.5634 38.5861 40.6483 38.6711C40.7333 38.756 40.8005 38.857 40.8461 38.9681C40.8916 39.0793 40.9147 39.1984 40.9138 39.3185C40.9129 39.4386 40.8882 39.5574 40.841 39.6678C40.7938 39.7783 40.7251 39.8783 40.639 39.962L37.8202 42.7809C37.6502 42.9508 37.4198 43.0462 37.1795 43.0462C36.9392 43.0462 36.7087 42.9508 36.5388 42.7809L35.1293 41.3714C34.9649 41.2004 34.8742 40.9717 34.8765 40.7344C34.8789 40.4972 34.9742 40.2703 35.142 40.1026C35.3098 39.9349 35.5367 39.8396 35.7739 39.8373C36.0112 39.835 36.2398 39.9258 36.4109 40.0902L37.1795 40.859L39.3574 38.6809V38.6806ZM39.3574 47.819C39.5282 47.6531 39.7574 47.5611 39.9954 47.5628C40.2335 47.5646 40.4613 47.6599 40.6296 47.8282C40.798 47.9965 40.8933 48.2243 40.8951 48.4624C40.8968 48.7004 40.8048 48.9296 40.639 49.1004L37.8202 51.9192C37.6502 52.0891 37.4198 52.1845 37.1795 52.1845C36.9392 52.1845 36.7087 52.0891 36.5388 51.9192L35.1293 50.5098C34.9625 50.3393 34.8697 50.1098 34.871 49.8712C34.8724 49.6326 34.9677 49.4041 35.1364 49.2354C35.3052 49.0667 35.5336 48.9713 35.7722 48.97C36.0108 48.9687 36.2403 49.0615 36.4109 49.2283L37.1795 49.9969L39.3574 47.819ZM42.6051 41.6369C42.3647 41.6369 42.1342 41.5414 41.9643 41.3714C41.7943 41.2015 41.6988 40.971 41.6988 40.7306C41.6988 40.4903 41.7943 40.2598 41.9643 40.0898C42.1342 39.9198 42.3647 39.8244 42.6051 39.8244H54.6016C54.8419 39.8244 55.0724 39.9198 55.2424 40.0898C55.4123 40.2598 55.5078 40.4903 55.5078 40.7306C55.5078 40.971 55.4123 41.2015 55.2424 41.3714C55.0724 41.5414 54.8419 41.6369 54.6016 41.6369H42.6051ZM42.6051 50.7753C42.3647 50.7753 42.1342 50.6798 41.9643 50.5098C41.7943 50.3399 41.6988 50.1094 41.6988 49.869C41.6988 49.6287 41.7943 49.3982 41.9643 49.2282C42.1342 49.0582 42.3647 48.9628 42.6051 48.9628H54.6016C54.8419 48.9628 55.0724 49.0582 55.2424 49.2282C55.4123 49.3982 55.5078 49.6287 55.5078 49.869C55.5078 50.1094 55.4123 50.3399 55.2424 50.5098C55.0724 50.6798 54.8419 50.7753 54.6016 50.7753H42.6051ZM42.6051 54.1253C42.3647 54.1253 42.1342 54.0298 41.9643 53.8599C41.7943 53.6899 41.6988 53.4594 41.6988 53.2191C41.6988 52.9787 41.7943 52.7482 41.9643 52.5783C42.1342 52.4083 42.3647 52.3128 42.6051 52.3128H48.6034C48.8438 52.3128 49.0743 52.4083 49.2442 52.5783C49.4142 52.7482 49.5097 52.9787 49.5097 53.2191C49.5097 53.4594 49.4142 53.6899 49.2442 53.8599C49.0743 54.0298 48.8438 54.1253 48.6034 54.1253H42.6051ZM42.6051 44.9869C42.3647 44.9869 42.1342 44.8915 41.9643 44.7215C41.7943 44.5515 41.6988 44.321 41.6988 44.0807C41.6988 43.8403 41.7943 43.6098 41.9643 43.4399C42.1342 43.2699 42.3647 43.1744 42.6051 43.1744H48.6034C48.8438 43.1744 49.0743 43.2699 49.2442 43.4399C49.4142 43.6098 49.5097 43.8403 49.5097 44.0807C49.5097 44.321 49.4142 44.5515 49.2442 44.7215C49.0743 44.8915 48.8438 44.9869 48.6034 44.9869H42.6051ZM12.8513 41.0871C10.0251 41.9349 7.52236 43.6197 5.67343 45.9193C3.8245 48.2188 2.71628 51.0249 2.49502 53.9672C2.48413 54.1064 2.50224 54.2464 2.5482 54.3783C2.59416 54.5102 2.66697 54.6311 2.76203 54.7335C2.8571 54.8358 2.97235 54.9173 3.10051 54.9728C3.22867 55.0283 3.36695 55.0567 3.50662 55.056H30.5611C30.7008 55.0567 30.8391 55.0283 30.9672 54.9728C31.0954 54.9173 31.2107 54.8358 31.3057 54.7335C31.4008 54.6311 31.4736 54.5102 31.5196 54.3783C31.5655 54.2464 31.5836 54.1064 31.5727 53.9672C31.3515 51.0249 30.2432 48.2188 28.3943 45.9193C26.5454 43.6197 24.0427 41.9349 21.2164 41.0871C19.9632 41.8736 18.5135 42.2908 17.0339 42.2908C15.5542 42.2908 14.1046 41.8736 12.8513 41.0871ZM17.0339 28.3629C18.232 28.3628 19.4032 28.718 20.3994 29.3835C21.3956 30.0491 22.1721 30.9951 22.6307 32.1019C23.0892 33.2088 23.2093 34.4268 22.9756 35.6018C22.7419 36.7769 22.165 37.8563 21.3179 38.7035C20.4707 39.5507 19.3914 40.1277 18.2163 40.3615C17.0413 40.5952 15.8233 40.4753 14.7164 40.0168C13.6095 39.5583 12.6634 38.7819 11.9978 37.7857C11.3322 36.7896 10.9769 35.6184 10.977 34.4203C10.9769 33.6248 11.1336 32.8371 11.438 32.1022C11.7424 31.3672 12.1886 30.6994 12.7511 30.137C13.3136 29.5745 13.9814 29.1283 14.7163 28.8239C15.4513 28.5194 16.239 28.3628 17.0344 28.3628L17.0339 28.3629ZM35.8177 27.8883C36.1762 27.8883 36.5266 27.9946 36.8247 28.1937C37.1228 28.3929 37.3551 28.676 37.4922 29.0071C37.6294 29.3383 37.6653 29.7028 37.5954 30.0544C37.5255 30.4059 37.3528 30.7289 37.0994 30.9824C36.8459 31.2359 36.5229 31.4085 36.1713 31.4784C35.8197 31.5484 35.4553 31.5125 35.1241 31.3753C34.7929 31.2381 34.5098 31.0058 34.3107 30.7077C34.1115 30.4097 34.0052 30.0592 34.0052 29.7008C34.0052 29.2201 34.1962 28.759 34.5361 28.4191C34.876 28.0792 35.337 27.8883 35.8177 27.8883ZM35.8177 13.3985C36.1779 13.3995 36.5231 13.5431 36.7778 13.7978C37.0325 14.0525 37.176 14.3976 37.1771 14.7578V23.3602C37.1771 23.7207 37.0339 24.0665 36.7789 24.3214C36.524 24.5763 36.1782 24.7196 35.8177 24.7196C35.4572 24.7196 35.1114 24.5763 34.8565 24.3214C34.6016 24.0665 34.4583 23.7207 34.4583 23.3602V14.7577C34.4594 14.3975 34.6029 14.0524 34.8577 13.7976C35.1124 13.5429 35.4575 13.3995 35.8177 13.3985ZM37.0392 26.2869C37.8432 26.5747 38.5198 27.137 38.9497 27.8748C39.3796 28.6126 39.5353 29.4785 39.3893 30.3198C39.2432 31.1611 38.8049 31.9239 38.1515 32.4737C37.4981 33.0234 36.6716 33.3249 35.8177 33.3249C34.9637 33.3249 34.1372 33.0234 33.4838 32.4737C32.8304 31.9239 32.3921 31.1611 32.2461 30.3198C32.1 29.4785 32.2557 28.6126 32.6856 27.8748C33.1155 27.137 33.7921 26.5747 34.5961 26.2869C34.019 26.0452 33.5261 25.6385 33.1792 25.1178C32.8323 24.5972 32.6467 23.9857 32.6458 23.3601V14.7577C32.6458 13.9165 32.98 13.1097 33.5749 12.5149C34.1697 11.92 34.9765 11.5858 35.8177 11.5858C36.659 11.5858 37.4657 11.92 38.0606 12.5149C38.6554 13.1097 38.9896 13.9165 38.9896 14.7577V23.3601C38.9887 23.9857 38.8032 24.5972 38.4562 25.1179C38.1092 25.6385 37.6163 26.0452 37.0392 26.2869Z" fill="var(--fill-0, white)"/>
</g>
</svg>
