<svg preserveAspectRatio="none" width="100%" height="100%" overflow="visible" style="display: block;" viewBox="0 0 46 48" fill="none" xmlns="http://www.w3.org/2000/svg">
<g id="mail">
<path id="Vector" d="M7.25 25.9792H21.75V17.5208H7.25V25.9792ZM9.8655 19.2991C9.95118 19.1655 10.0624 19.0501 10.1927 18.9596C10.3231 18.869 10.4701 18.8051 10.6252 18.7714C10.7803 18.7378 10.9405 18.7351 11.0967 18.7635C11.2528 18.7918 11.4019 18.8508 11.5352 18.9369L14.4911 20.8355L17.4406 18.8908C17.7082 18.7215 18.0315 18.664 18.3411 18.7306C18.6506 18.7972 18.9217 18.9827 19.0959 19.2471C19.2702 19.5115 19.3337 19.8337 19.2728 20.1445C19.2119 20.4552 19.0315 20.7296 18.7704 20.9087C18.1371 21.2403 14.9766 23.64 14.5 23.4859C14.0578 23.6496 10.6931 21.1838 10.2289 20.969C10.0954 20.8832 9.98005 20.772 9.88952 20.6416C9.79899 20.5113 9.73503 20.3644 9.70128 20.2093C9.66754 20.0543 9.66467 19.8941 9.69285 19.7379C9.72102 19.5817 9.77969 19.4326 9.8655 19.2991ZM45.9969 23.4455C45.9873 24.3314 45.6689 25.1861 45.0965 25.8622C44.524 26.5383 43.7336 26.9933 42.8615 27.1489C41.9894 27.3044 41.0903 27.1507 40.3195 26.7142C39.5486 26.2776 38.9543 25.5857 38.6391 24.7579H36.1698C35.8493 24.7579 35.5419 24.6306 35.3153 24.4039C35.0887 24.1773 34.9614 23.87 34.9614 23.5495C34.9614 23.2291 35.0887 22.9217 35.3153 22.6951C35.5419 22.4685 35.8493 22.3412 36.1698 22.3412H38.5745C38.8448 21.4771 39.4148 20.738 40.1819 20.2571C40.949 19.7762 41.8626 19.5851 42.7581 19.7184C43.6536 19.8516 44.472 20.3004 45.0659 20.9838C45.6597 21.6672 45.9899 22.5402 45.9969 23.4455ZM37.4453 33.2017V30.7323C37.444 29.4508 36.9343 28.2222 36.0282 27.3161C35.1221 26.41 33.8935 25.9003 32.612 25.8989H29V21.2261H32.612C33.8935 21.2247 35.1221 20.7151 36.0282 19.8089C36.9343 18.9028 37.444 17.6742 37.4453 16.3927V13.9233C38.2907 13.6138 38.9985 13.0139 39.4422 12.2307C39.886 11.4475 40.0369 10.532 39.8679 9.64782C39.699 8.76362 39.2211 7.9683 38.5198 7.40393C37.8185 6.83956 36.9394 6.5429 36.0395 6.56696C35.1396 6.59101 34.2776 6.93421 33.6075 7.53524C32.9373 8.13627 32.5027 8.95598 32.3812 9.84794C32.2597 10.7399 32.4592 11.646 32.9442 12.4044C33.4292 13.1628 34.168 13.724 35.0287 13.9879V16.3927C35.0279 17.0335 34.7731 17.6477 34.32 18.1008C33.867 18.5538 33.2527 18.8087 32.612 18.8094H29V7.25C28.9979 5.32783 28.2334 3.48498 26.8742 2.1258C25.515 0.766613 23.6722 0.00210133 21.75 0H7.25C5.32782 0.00209814 3.48498 0.766609 2.12579 2.12579C0.766609 3.48498 0.00209814 5.32782 0 7.25V39.875C0.00209814 41.7972 0.766609 43.64 2.12579 44.9992C3.48498 46.3584 5.32782 47.1229 7.25 47.125H21.75C23.6722 47.1229 25.515 46.3584 26.8742 44.9992C28.2334 43.64 28.9979 41.7972 29 39.875V28.3156H32.612C33.2527 28.3163 33.867 28.5712 34.32 29.0242C34.7731 29.4773 35.0279 30.0915 35.0287 30.7323V33.1371C34.168 33.401 33.4292 33.9622 32.9442 34.7206C32.4592 35.479 32.2597 36.3851 32.3812 37.2771C32.5027 38.169 32.9373 38.9887 33.6075 39.5898C34.2776 40.1908 35.1396 40.534 36.0395 40.558C36.9394 40.5821 37.8185 40.2854 38.5198 39.7211C39.2211 39.1567 39.699 38.3614 39.8679 37.4772C40.0369 36.593 39.886 35.6775 39.4422 34.8943C38.9985 34.1111 38.2907 33.5112 37.4453 33.2017ZM24.1667 27.1875C24.1667 27.3462 24.1355 27.5033 24.0748 27.65C24.0141 27.7966 23.9251 27.9298 23.8128 28.042C23.7006 28.1542 23.5674 28.2432 23.4208 28.3039C23.2742 28.3646 23.117 28.3959 22.9583 28.3958H6.04167C5.88297 28.3959 5.72583 28.3646 5.57921 28.3039C5.43259 28.2432 5.29937 28.1542 5.18715 28.042C5.07494 27.9298 4.98594 27.7966 4.92523 27.65C4.86452 27.5033 4.83329 27.3462 4.83333 27.1875V16.3125C4.83329 16.1538 4.86452 15.9967 4.92523 15.85C4.98594 15.7034 5.07494 15.5702 5.18715 15.458C5.29937 15.3458 5.43259 15.2568 5.57921 15.1961C5.72583 15.1354 5.88297 15.1041 6.04167 15.1042H22.9583C23.117 15.1041 23.2742 15.1354 23.4208 15.1961C23.5674 15.2568 23.7006 15.3458 23.8128 15.458C23.9251 15.5702 24.0141 15.7034 24.0748 15.85C24.1355 15.9967 24.1667 16.1538 24.1667 16.3125V27.1875Z" fill="var(--fill-0, white)"/>
</g>
</svg>
