<svg preserveAspectRatio="none" width="100%" height="100%" overflow="visible" style="display: block;" viewBox="0 0 93 47" fill="none" xmlns="http://www.w3.org/2000/svg">
<g id="Layer 1">
<path id="Vector" d="M27.2255 33.3108C23.4206 33.3108 20.3262 36.381 20.3262 40.1551C20.3262 43.9292 23.4191 47 27.2255 47C31.032 47 34.1213 43.9292 34.1213 40.1551C34.1213 36.381 31.0279 33.3108 27.2255 33.3108Z" fill="var(--fill-0, white)"/>
<path id="Vector_2" d="M7.94291 33.3108C4.13747 33.3108 1.04356 36.383 1.04356 40.1551C1.04356 43.9272 4.13747 47 7.94291 47C11.7484 47 14.8423 43.9292 14.8423 40.1551C14.8423 36.381 11.7484 33.3108 7.94291 33.3108Z" fill="var(--fill-0, white)"/>
<path id="Vector_3" d="M46.5046 33.3108C42.7027 33.3108 39.6052 36.383 39.6052 40.1551C39.6052 43.9272 42.7027 47 46.5046 47C50.3065 47 53.4039 43.9292 53.4039 40.1551C53.4039 36.381 50.309 33.3108 46.5046 33.3108Z" fill="var(--fill-0, white)"/>
<path id="Vector_4" d="M85.0653 33.3108C81.2608 33.3108 78.1664 36.381 78.1664 40.1551C78.1664 43.9292 81.2608 47 85.0653 47C88.8697 47 91.9646 43.9292 91.9646 40.1551C91.9646 36.381 88.8697 33.3108 85.0653 33.3108Z" fill="var(--fill-0, white)"/>
<path id="Vector_5" d="M65.7852 33.3113C61.9808 33.3113 58.8853 36.3815 58.8853 40.1551C58.8853 43.9287 61.9802 46.9995 65.7847 46.9995C69.5891 46.9995 72.6866 43.9297 72.6866 40.1551C72.6866 36.3805 69.5927 33.3113 65.7877 33.3113" fill="var(--fill-0, white)"/>
<path id="Vector_6" d="M13.694 13.9168C13.694 10.7168 11.2595 8.30172 8.03383 8.30172C4.80814 8.30172 2.37368 10.7168 2.37368 13.9168C2.37368 17.1168 4.80814 19.5318 8.03383 19.5318C11.2595 19.5318 13.694 17.1168 13.694 13.9168ZM0 13.9168C0 9.47885 3.59091 6.12836 8.03383 6.12836C12.5069 6.12836 16.0677 9.44895 16.0677 13.8864V20.7095C16.0677 21.4037 15.5804 21.8866 14.8504 21.8866C14.0893 21.8866 13.6332 21.4037 13.6332 20.7095V18.7165H13.5111C12.5682 20.3167 10.6813 21.7062 7.88161 21.7062C3.56026 21.7052 0 18.3846 0 13.9168Z" fill="var(--fill-0, white)"/>
<path id="Vector_7" d="M32.9271 13.9168C32.9271 10.7168 30.4926 8.30172 27.2669 8.30172C24.0412 8.30172 21.6068 10.7168 21.6068 13.9168C21.6068 17.1168 24.0412 19.5318 27.2669 19.5318C30.4926 19.5318 32.9271 17.1168 32.9271 13.9168ZM22.3372 26.7471C21.6982 26.4431 21.3938 25.9014 21.6374 25.2675C21.8811 24.6031 22.4894 24.332 23.1284 24.6335C24.357 25.2055 25.6968 25.5044 27.0539 25.5092C30.6755 25.5092 32.8663 23.3657 32.8663 19.7132V18.7165H32.7447C31.8013 20.3167 29.9144 21.7062 27.1147 21.7062C22.7933 21.7062 19.2331 18.3856 19.2331 13.9178C19.2331 9.47986 22.824 6.12938 27.2669 6.12938C31.7405 6.12938 35.3008 9.44996 35.3008 13.8874V19.5597C35.3008 24.4506 32.1338 27.7408 26.9625 27.7408C25.379 27.7408 23.7955 27.4368 22.3372 26.7451" fill="var(--fill-0, white)"/>
<path id="Vector_8" d="M52.1602 13.9168C52.1602 10.7168 49.7257 8.30172 46.5005 8.30172C43.2753 8.30172 40.8398 10.7168 40.8398 13.9168C40.8398 17.1168 43.2743 19.5318 46.5005 19.5318C49.7267 19.5318 52.1602 17.1168 52.1602 13.9168ZM38.4662 13.9168C38.4662 9.47885 42.0269 6.12836 46.5005 6.12836C50.9741 6.12836 54.5338 9.47885 54.5338 13.9168C54.5338 18.3547 50.9736 21.7052 46.5005 21.7052C42.0274 21.7052 38.4662 18.3547 38.4662 13.9168Z" fill="var(--fill-0, white)"/>
<path id="Vector_9" d="M71.3932 13.9168C71.3932 10.7168 68.9588 8.30172 65.7336 8.30172C62.5084 8.30172 60.0729 10.7168 60.0729 13.9168C60.0729 17.1168 62.5074 19.5318 65.7336 19.5318C68.9598 19.5318 71.3932 17.1168 71.3932 13.9168ZM57.6992 13.9168C57.6992 9.47885 61.2294 6.12836 65.5809 6.12836C68.3811 6.12836 70.2674 7.5168 71.2109 9.11806H71.3325V1.17763C71.3325 0.482911 71.8182 0 72.5497 0C73.3108 0 73.7669 0.482911 73.7669 1.17763V13.9472C73.7669 18.3851 70.2067 21.7057 65.7336 21.7057C61.2897 21.7057 57.6992 18.3552 57.6992 13.9173" fill="var(--fill-0, white)"/>
<path id="Vector_10" d="M90.6268 13.9168C90.6268 10.7168 88.1919 8.30172 84.9667 8.30172C81.7415 8.30172 79.3065 10.7168 79.3065 13.9168C79.3065 17.1168 81.7405 19.5318 84.9667 19.5318C88.1929 19.5318 90.6268 17.1168 90.6268 13.9168ZM76.9323 13.9168C76.9323 9.47885 80.5238 6.12836 84.9667 6.12836C89.4397 6.12836 93 9.44895 93 13.8864V20.7095C93 21.4037 92.5132 21.8866 91.7833 21.8866C91.0222 21.8866 90.5655 21.4037 90.5655 20.7095V18.7165H90.444C89.5005 20.3167 87.6141 21.7062 84.8145 21.7062C80.4931 21.7062 76.9323 18.3856 76.9323 13.9178" fill="var(--fill-0, white)"/>
</g>
</svg>
