<svg preserveAspectRatio="none" width="100%" height="100%" overflow="visible" style="display: block;" viewBox="0 0 40 34" fill="none" xmlns="http://www.w3.org/2000/svg">
<g id="Group 48099270">
<path id="Vector" fill-rule="evenodd" clip-rule="evenodd" d="M15.8638 25.4347L15.5621 27.1706C15.5621 27.1706 25.8557 21.9148 36.2459 19.6968L36.0528 18.9133C31.5275 19.6486 23.1043 21.9148 15.8759 25.4347H15.8638Z" fill="var(--fill-0, white)"/>
<path id="Vector_2" fill-rule="evenodd" clip-rule="evenodd" d="M30.0513 6.94341C30.5099 9.20964 32.9958 10.2704 33.8285 12.3559C33.9733 12.7054 34.0578 13.0912 34.0216 13.4649C33.9371 14.4654 32.9476 15.0681 32.0063 15.0681C30.8961 15.0681 30.0634 14.4051 29.1945 13.8144L28.4343 14.7909C29.3997 15.8034 30.6185 16.6834 32.0183 16.816C33.7681 16.9848 35.6869 15.8757 36.2058 14.164C36.5316 13.1032 36.3627 11.9219 35.8076 10.9696C34.8663 9.3784 31.596 7.59435 32.7303 5.38838C33.3578 4.17088 35.1921 3.88158 36.3989 3.72487V2.41093C34.7335 2.66408 32.9476 3.03776 31.5115 3.96596C30.4858 4.64101 29.7979 5.67769 30.0513 6.93135V6.94341Z" fill="var(--fill-0, white)"/>
<path id="Vector_3" fill-rule="evenodd" clip-rule="evenodd" d="M17.6791 18.0696C18.0411 18.5036 18.5117 18.8652 19.1513 19.0942C23.568 20.6975 27.2848 15.2127 27.2848 15.2127L26.5246 14.8029C21.8906 19.5041 20.177 15.948 20.177 15.948C23.4353 14.1399 25.5109 12.0544 26.2591 9.40247C27.2004 6.06339 24.1352 4.24317 21.2149 6.97952L20.9735 7.18445C18.379 9.57123 16.1706 14.1881 17.0998 17.0209C16.5447 17.491 15.3983 18.371 13.5278 19.4197C13.7692 16.0204 14.2639 12.2594 14.8673 9.02878C16.9429 3.55606 16.3878 1.43448 16.3878 1.43448C16.3878 1.43448 15.0725 -2.35062 13.552 6.03928C12.0314 14.4412 9.67827 16.5387 9.67827 16.5387C5.52703 20.7336 4.56163 15.2248 4.56163 15.2248C3.6445 9.02878 8.27844 0.626831 8.27844 0.626831L6.79413 0C4.6099 2.88101 -1.12219 18.166 3.90998 20.5046C8.94215 22.8432 12.1401 15.0681 12.1401 15.0681L11.6694 20.2153C8.80941 21.1797 4.89952 22.59 2.79977 24.7357C1.61715 25.9412 0.567269 27.2913 0.16904 28.9186C-0.687757 32.4024 1.99124 33.4993 1.99124 33.4993C5.0926 34.8856 8.36291 33.1377 10.1127 31.3657C12.8279 28.6414 13.3227 22.5539 13.3951 21.0712C14.4812 20.4082 16.6292 19.0581 17.667 18.0696H17.6791ZM20.1529 9.84848C21.8062 7.06391 24.4128 7.05185 24.0749 9.37836C23.6525 12.3076 20.0926 14.6944 19.5978 14.9957C19.5978 14.9957 18.5962 12.4764 20.1529 9.84848ZM5.0926 30.992C4.67024 30.9799 4.27201 30.7871 3.93412 30.5339C3.59623 30.2808 3.35487 29.9191 3.21006 29.5213C2.70323 27.9904 4.30821 25.1335 11.5125 21.9632C11.5125 21.9632 10.7281 31.1849 5.08053 30.992H5.0926Z" fill="var(--fill-0, white)"/>
<ellipse id="Ellipse 1" cx="38.8089" cy="18.6353" rx="0.960611" ry="0.96061" fill="var(--fill-0, white)"/>
</g>
</svg>
