<svg width="93" height="47" viewBox="0 0 93 47" fill="none" xmlns="http://www.w3.org/2000/svg">
<g clip-path="url(#clip0_42002_6214)">
<path d="M27.2255 33.3108C23.4206 33.3108 20.3262 36.3811 20.3262 40.1552C20.3262 43.9293 23.4191 47 27.2255 47C31.032 47 34.1213 43.9293 34.1213 40.1552C34.1213 36.3811 31.0279 33.3108 27.2255 33.3108Z" fill="white"/>
<path d="M7.94281 33.3108C4.13736 33.3108 1.04346 36.3831 1.04346 40.1552C1.04346 43.9272 4.13736 47 7.94281 47C11.7483 47 14.8422 43.9293 14.8422 40.1552C14.8422 36.3811 11.7483 33.3108 7.94281 33.3108Z" fill="white"/>
<path d="M46.5048 33.3108C42.7029 33.3108 39.6055 36.3831 39.6055 40.1552C39.6055 43.9272 42.7029 47 46.5048 47C50.3067 47 53.4042 43.9293 53.4042 40.1552C53.4042 36.3811 50.3092 33.3108 46.5048 33.3108Z" fill="white"/>
<path d="M85.0653 33.3108C81.2609 33.3108 78.1665 36.3811 78.1665 40.1552C78.1665 43.9293 81.2609 47 85.0653 47C88.8698 47 91.9647 43.9293 91.9647 40.1552C91.9647 36.3811 88.8698 33.3108 85.0653 33.3108Z" fill="white"/>
<path d="M65.7851 33.3113C61.9807 33.3113 58.8853 36.3815 58.8853 40.1551C58.8853 43.9287 61.9802 46.9995 65.7846 46.9995C69.589 46.9995 72.6865 43.9298 72.6865 40.1551C72.6865 36.3805 69.5926 33.3113 65.7877 33.3113" fill="white"/>
<path d="M13.694 13.9168C13.694 10.7168 11.2595 8.30177 8.03383 8.30177C4.80814 8.30177 2.37368 10.7168 2.37368 13.9168C2.37368 17.1168 4.80814 19.5319 8.03383 19.5319C11.2595 19.5319 13.694 17.1168 13.694 13.9168ZM0 13.9168C0 9.4789 3.59091 6.12842 8.03383 6.12842C12.5069 6.12842 16.0677 9.449 16.0677 13.8864V20.7095C16.0677 21.4037 15.5804 21.8866 14.8504 21.8866C14.0893 21.8866 13.6332 21.4037 13.6332 20.7095V18.7165H13.5111C12.5682 20.3168 10.6813 21.7062 7.88161 21.7062C3.56026 21.7052 0 18.3846 0 13.9168Z" fill="white"/>
<path d="M32.9269 13.9168C32.9269 10.7168 30.4924 8.30174 27.2667 8.30174C24.0411 8.30174 21.6066 10.7168 21.6066 13.9168C21.6066 17.1168 24.0411 19.5318 27.2667 19.5318C30.4924 19.5318 32.9269 17.1168 32.9269 13.9168ZM22.337 26.7471C21.698 26.4431 21.3936 25.9014 21.6372 25.2675C21.8809 24.6032 22.4892 24.3321 23.1283 24.6336C24.3569 25.2056 25.6966 25.5044 27.0537 25.5092C30.6753 25.5092 32.8661 23.3657 32.8661 19.7132V18.7165H32.7445C31.8011 20.3168 29.9142 21.7062 27.1145 21.7062C22.7932 21.7062 19.2329 18.3856 19.2329 13.9178C19.2329 9.47988 22.8238 6.12939 27.2667 6.12939C31.7403 6.12939 35.3006 9.44998 35.3006 13.8874V19.5597C35.3006 24.4506 32.1336 27.7408 26.9623 27.7408C25.3788 27.7408 23.7954 27.4368 22.337 26.7451" fill="white"/>
<path d="M52.1603 13.9168C52.1603 10.7168 49.7258 8.30177 46.5007 8.30177C43.2755 8.30177 40.84 10.7168 40.84 13.9168C40.84 17.1168 43.2744 19.5319 46.5007 19.5319C49.7269 19.5319 52.1603 17.1168 52.1603 13.9168ZM38.4663 13.9168C38.4663 9.4789 42.0271 6.12842 46.5007 6.12842C50.9742 6.12842 54.534 9.4789 54.534 13.9168C54.534 18.3547 50.9737 21.7052 46.5007 21.7052C42.0276 21.7052 38.4663 18.3547 38.4663 13.9168Z" fill="white"/>
<path d="M71.3932 13.9168C71.3932 10.7168 68.9587 8.30172 65.7336 8.30172C62.5084 8.30172 60.0729 10.7168 60.0729 13.9168C60.0729 17.1168 62.5074 19.5318 65.7336 19.5318C68.9598 19.5318 71.3932 17.1168 71.3932 13.9168ZM57.6992 13.9168C57.6992 9.47885 61.2293 6.12836 65.5808 6.12836C68.381 6.12836 70.2674 7.5168 71.2109 9.11806H71.3324V1.17763C71.3324 0.482911 71.8182 0 72.5497 0C73.3107 0 73.7669 0.482911 73.7669 1.17763V13.9472C73.7669 18.3851 70.2066 21.7057 65.7336 21.7057C61.2896 21.7057 57.6992 18.3552 57.6992 13.9173" fill="white"/>
<path d="M90.6266 13.9168C90.6266 10.7168 88.1917 8.30177 84.9665 8.30177C81.7413 8.30177 79.3063 10.7168 79.3063 13.9168C79.3063 17.1168 81.7403 19.5319 84.9665 19.5319C88.1927 19.5319 90.6266 17.1168 90.6266 13.9168ZM76.9321 13.9168C76.9321 9.4789 80.5236 6.12842 84.9665 6.12842C89.4395 6.12842 92.9998 9.449 92.9998 13.8864V20.7095C92.9998 21.4037 92.513 21.8866 91.7831 21.8866C91.022 21.8866 90.5653 21.4037 90.5653 20.7095V18.7165H90.4438C89.5003 20.3168 87.6139 21.7062 84.8143 21.7062C80.4929 21.7062 76.9321 18.3857 76.9321 13.9178" fill="white"/>
</g>
<defs>
<clipPath id="clip0_42002_6214">
<rect width="93" height="47" fill="white"/>
</clipPath>
</defs>
</svg>
