<svg preserveAspectRatio="none" width="100%" height="100%" overflow="visible" style="display: block;" viewBox="0 0 58 58" fill="none" xmlns="http://www.w3.org/2000/svg">
<g id="Group">
<path id="Vector" d="M44.2925 1.69922C44.2925 0.760004 43.5325 0 42.5932 0H37.4956V6.91016H44.2925V1.69922Z" fill="var(--fill-0, white)"/>
<path id="Vector_2" d="M5.79841e-06 6.91007H34.0972V5.68953e-06H1.6992C0.759999 5.68953e-06 5.79841e-06 0.759999 5.79841e-06 1.6992V6.91007Z" fill="var(--fill-0, white)"/>
<path id="Vector_3" d="M0 39.3081C0 40.2473 0.759993 41.0073 1.6992 41.0073H27.3004C27.3004 33.5119 33.3986 27.4137 40.894 27.4137C42.0742 27.4137 43.1997 27.6124 44.2924 27.8964V10.3085H0V39.3081ZM27.9808 20.2767C27.229 19.7142 27.0765 18.6489 27.6406 17.8989C28.2064 17.1472 29.2701 16.9996 30.0184 17.5587L36.8152 22.6563C37.2433 22.9765 37.4956 23.481 37.4956 24.0153C37.4956 24.5496 37.2433 25.0541 36.8152 25.3743L30.0184 30.4719C29.2664 31.0359 28.2014 30.8824 27.6406 30.1317C27.0765 29.3817 27.229 28.3164 27.9808 27.7539L32.9638 24.0153L27.9808 20.2767ZM18.8923 28.5753L22.2907 18.3801C22.586 17.4906 23.5402 17.0111 24.4396 17.3064C25.3291 17.6017 25.8103 18.5643 25.5133 19.4553L22.1149 29.6505C21.8197 30.536 20.8615 31.0226 19.966 30.7242C19.0765 30.4287 18.5953 29.4663 18.8923 28.5753ZM7.59042 22.6563L14.3872 17.5587C15.1372 16.9946 16.2009 17.1439 16.7651 17.8989C17.3292 18.6489 17.1766 19.7142 16.4249 20.2767L11.4418 24.0153L16.4249 27.7539C17.1766 28.3164 17.3292 29.3817 16.7651 30.1317C16.2045 30.8818 15.1399 31.0363 14.3872 30.4719L7.59042 25.3743C7.16234 25.0541 6.91006 24.5496 6.91006 24.0153C6.91006 23.481 7.16234 22.9765 7.59042 22.6563Z" fill="var(--fill-0, white)"/>
<path id="Vector_4" d="M51.0891 41.0073C51.0891 35.3853 46.5159 30.8121 40.894 30.8121C35.272 30.8121 30.6988 35.3853 30.6988 41.0073C30.6988 46.6292 35.272 51.2024 40.894 51.2024C46.5159 51.2024 51.0891 46.6292 51.0891 41.0073Z" fill="var(--fill-0, white)"/>
<path id="Vector_5" d="M57.0036 57.0036C58.3251 55.6821 58.3344 53.5289 57.0036 52.198L52.5612 47.8689C51.3884 49.855 49.7417 51.5017 47.7557 52.6745L52.198 57.0036C53.5262 58.3318 55.6747 58.3325 57.0036 57.0036Z" fill="var(--fill-0, white)"/>
</g>
</svg>
