<svg preserveAspectRatio="none" width="100%" height="100%" overflow="visible" style="display: block;" viewBox="0 0 595 811" fill="none" xmlns="http://www.w3.org/2000/svg">
<g id="Group 427318928">
<g id="Vector 27" filter="url(#filter0_f_42160_1867)">
<path d="M132.636 311.815L179.823 515.384L193.089 523.043L222.108 539.797L271.83 547.5L304.141 491.534L298.655 443.595L271.612 329.593L294.531 222.88L285.9 134.433L179.627 132.772L132.636 311.815Z" fill="url(#paint0_linear_42160_1867)" fill-opacity="0.4"/>
<path d="M132.636 311.815L179.823 515.384L193.089 523.043L222.108 539.797L271.83 547.5L304.141 491.534L298.655 443.595L271.612 329.593L294.531 222.88L285.9 134.433L179.627 132.772L132.636 311.815Z" stroke="var(--stroke-0, black)"/>
</g>
<g id="Vector 28" filter="url(#filter1_f_42160_1867)">
<path d="M252.585 591.101L393.072 678.715L404.795 675.574L430.44 668.702L462.613 645.161L449.36 595.703L419.428 571.918L340.407 523.199L293.461 450.572L239.072 405.854L178.601 464.464L252.585 591.101Z" fill="url(#paint1_linear_42160_1867)" fill-opacity="0.4"/>
<path d="M252.585 591.101L393.072 678.715L404.795 675.574L430.44 668.702L462.613 645.161L449.36 595.703L419.428 571.918L340.407 523.199L293.461 450.572L239.072 405.854L178.601 464.464L252.585 591.101Z" stroke="var(--stroke-0, black)"/>
</g>
</g>
<defs>
<filter id="filter0_f_42160_1867" x="0.720955" y="0.866093" width="435.336" height="678.58" filterUnits="userSpaceOnUse" color-interpolation-filters="sRGB">
<feFlood flood-opacity="0" result="BackgroundImageFix"/>
<feBlend mode="normal" in="SourceGraphic" in2="BackgroundImageFix" result="shape"/>
<feGaussianBlur stdDeviation="65.7" result="effect1_foregroundBlur_42160_1867"/>
</filter>
<filter id="filter1_f_42160_1867" x="46.5719" y="273.784" width="548.012" height="536.87" filterUnits="userSpaceOnUse" color-interpolation-filters="sRGB">
<feFlood flood-opacity="0" result="BackgroundImageFix"/>
<feBlend mode="normal" in="SourceGraphic" in2="BackgroundImageFix" result="shape"/>
<feGaussianBlur stdDeviation="65.7" result="effect1_foregroundBlur_42160_1867"/>
</filter>
<linearGradient id="paint0_linear_42160_1867" x1="320" y1="309" x2="104" y2="346.5" gradientUnits="userSpaceOnUse">
<stop stop-color="#3EFF51"/>
<stop offset="1" stop-color="#0E06FF"/>
</linearGradient>
<linearGradient id="paint1_linear_42160_1867" x1="356.75" y1="554.265" x2="214.591" y2="345.506" gradientUnits="userSpaceOnUse">
<stop stop-color="#0E06FF"/>
<stop offset="1" stop-color="#3EFF51"/>
</linearGradient>
</defs>
</svg>
