<svg preserveAspectRatio="none" width="100%" height="100%" overflow="visible" style="display: block;" viewBox="0 0 18 18" fill="none" xmlns="http://www.w3.org/2000/svg">
<g id="Group">
<path id="Subtract" d="M13.9424 0C16.1833 0.000158085 17.9998 1.81674 18 4.05762V13.9424C17.9999 16.1833 16.1833 17.9999 13.9424 18H4.05762C1.81673 17.9999 0.000158083 16.1833 0 13.9424V4.05762C0.000158375 1.81673 1.81673 0.000139391 4.05762 0H13.9424ZM8.99805 3.28125C5.68932 3.28135 2.99707 5.46609 2.99707 8.15137C2.99709 10.5587 5.13186 12.5748 8.01562 12.9561C8.21102 12.9983 8.47765 13.0849 8.54492 13.252C8.60543 13.4036 8.58463 13.6416 8.56445 13.7949C8.56282 13.8047 8.49359 14.2194 8.47852 14.3086C8.45229 14.4604 8.35802 14.9014 8.99805 14.6318C9.63858 14.3619 12.4538 12.5966 13.7129 11.1475C14.5826 10.1937 15 9.22603 15 8.15137C15 5.46603 12.3072 3.28125 8.99805 3.28125Z" fill="var(--fill-0, white)"/>
</g>
</svg>
