<svg preserveAspectRatio="none" width="100%" height="100%" overflow="visible" style="display: block;" viewBox="0 0 620 988" fill="none" xmlns="http://www.w3.org/2000/svg">
<g id="Group 427318929">
<g id="Vector 25" filter="url(#filter0_f_42160_1863)">
<path d="M461.763 664.99L455.375 425.409L442.221 413.762L413.448 388.285L359.336 368.237L310.202 423.727L305.383 478.859L309.654 613.17L259.448 727.843L248.883 829.218L367.933 855.433L461.763 664.99Z" fill="var(--fill-0, #3EFF51)" fill-opacity="0.4"/>
<path d="M461.763 664.99L455.375 425.409L442.221 413.762L413.448 388.285L359.336 368.237L310.202 423.727L305.383 478.859L309.654 613.17L259.448 727.843L248.883 829.218L367.933 855.433L461.763 664.99Z" stroke="var(--stroke-0, black)"/>
</g>
<g id="Vector 26" filter="url(#filter1_f_42160_1863)">
<path d="M411.561 301.204L241.191 132.639L223.636 133.33L185.234 134.842L132.293 157.805L135.209 231.865L169.874 275.005L265.882 369.026L308.97 486.559L371.479 567.064L475.574 503.626L411.561 301.204Z" fill="url(#paint0_linear_42160_1863)" fill-opacity="0.4"/>
<path d="M411.561 301.204L241.191 132.639L223.636 133.33L185.234 134.842L132.293 157.805L135.209 231.865L169.874 275.005L265.882 369.026L308.97 486.559L371.479 567.064L475.574 503.626L411.561 301.204Z" stroke="var(--stroke-0, black)"/>
</g>
</g>
<defs>
<filter id="filter0_f_42160_1863" x="116.94" y="236.249" width="476.726" height="751.157" filterUnits="userSpaceOnUse" color-interpolation-filters="sRGB">
<feFlood flood-opacity="0" result="BackgroundImageFix"/>
<feBlend mode="normal" in="SourceGraphic" in2="BackgroundImageFix" result="shape"/>
<feGaussianBlur stdDeviation="65.7" result="effect1_foregroundBlur_42160_1863"/>
</filter>
<filter id="filter1_f_42160_1863" x="0.379906" y="0.73084" width="607.189" height="698.393" filterUnits="userSpaceOnUse" color-interpolation-filters="sRGB">
<feFlood flood-opacity="0" result="BackgroundImageFix"/>
<feBlend mode="normal" in="SourceGraphic" in2="BackgroundImageFix" result="shape"/>
<feGaussianBlur stdDeviation="65.7" result="effect1_foregroundBlur_42160_1863"/>
</filter>
<linearGradient id="paint0_linear_42160_1863" x1="252.729" y1="319.946" x2="386.771" y2="660.086" gradientUnits="userSpaceOnUse">
<stop stop-color="#0E06FF"/>
<stop offset="1" stop-color="#3EFF51"/>
</linearGradient>
</defs>
</svg>
