<svg preserveAspectRatio="none" width="100%" height="100%" overflow="visible" style="display: block;" viewBox="0 0 9 3" fill="none" xmlns="http://www.w3.org/2000/svg">
<g id="Group">
<path id="Vector" d="M8.03776 2.84822H6.35398H6.35173C6.28845 2.84822 6.23716 2.79693 6.23716 2.73365V2.73182V2.73164V0.117248V0.117072V0.114611C6.23716 0.0513297 6.28845 3.66211e-05 6.35173 3.66211e-05H6.35398H8.03776C8.10079 3.66211e-05 8.15236 0.0515758 8.15236 0.114611V0.540213C8.15236 0.603494 8.10104 0.654822 8.03776 0.654822H6.89191V1.09677H8.03776C8.10079 1.09677 8.15236 1.14834 8.15236 1.21138V1.63698C8.15236 1.70026 8.10104 1.75159 8.03776 1.75159H6.89191V2.19354H8.03776C8.10079 2.19354 8.15236 2.24512 8.15236 2.30812V2.73372C8.15236 2.79693 8.10104 2.84822 8.03776 2.84822Z" fill="var(--fill-0, white)"/>
<path id="Vector_2" d="M1.8006 2.84822C1.86388 2.84822 1.91517 2.79693 1.91517 2.73365V2.30804C1.91517 2.24504 1.8636 2.19347 1.8006 2.19347H0.65475V0.114574C0.65475 0.0515392 0.603175 0 0.540175 0H0.114574C0.0512931 0 0 0.0512931 0 0.114574V2.73164V2.73182V2.73365C0 2.79693 0.0512931 2.84822 0.114574 2.84822H0.116824H1.8006Z" fill="var(--fill-0, white)"/>
<path id="Vector_3" d="M2.81654 3.66211e-05H2.39094C2.32766 3.66211e-05 2.27637 0.0513648 2.27637 0.114611V2.73368C2.27637 2.79696 2.32766 2.84826 2.39094 2.84826H2.81654C2.87982 2.84826 2.93112 2.79696 2.93112 2.73368V0.114611C2.93115 0.0513297 2.87986 3.66211e-05 2.81654 3.66211e-05Z" fill="var(--fill-0, white)"/>
<path id="Vector_4" d="M5.71338 3.66211e-05H5.28778C5.2245 3.66211e-05 5.17321 0.0513648 5.17321 0.114611V1.6702C5.17321 1.6702 3.97557 0.0528061 3.97491 0.0519272C3.95195 0.0209194 3.91683 3.66211e-05 3.87766 3.66211e-05H3.45442C3.39114 3.66211e-05 3.33984 0.0513648 3.33984 0.114611V2.73368C3.33984 2.79696 3.39114 2.84826 3.45442 2.84826H3.88002C3.9433 2.84826 3.99459 2.79696 3.99459 2.73368V1.17858C3.99459 1.17858 5.19409 2.79847 5.19441 2.7989C5.21662 2.82892 5.25252 2.84826 5.2901 2.84826H5.71338C5.77666 2.84826 5.82796 2.79696 5.82796 2.73368V0.114611C5.82799 0.0513297 5.77666 3.66211e-05 5.71338 3.66211e-05Z" fill="var(--fill-0, white)"/>
</g>
</svg>
