<svg preserveAspectRatio="none" width="100%" height="100%" overflow="visible" style="display: block;" viewBox="0 0 24 24" fill="none" xmlns="http://www.w3.org/2000/svg">
<g id="SVG">
<path id="Vector" d="M21.5934 7.20301C21.4795 6.78041 21.2569 6.39501 20.9477 6.08518C20.6386 5.77534 20.2537 5.55187 19.8314 5.43701C18.2654 5.00701 12.0004 5.00001 12.0004 5.00001C12.0004 5.00001 5.73633 4.99301 4.16933 5.40401C3.74726 5.52415 3.36316 5.75078 3.0539 6.06214C2.74464 6.3735 2.52062 6.75913 2.40333 7.18201C1.99033 8.74801 1.98633 11.996 1.98633 11.996C1.98633 11.996 1.98233 15.26 2.39233 16.81C2.62233 17.667 3.29733 18.344 4.15533 18.575C5.73733 19.005 11.9854 19.012 11.9854 19.012C11.9854 19.012 18.2504 19.019 19.8164 18.609C20.2389 18.4943 20.6241 18.2714 20.934 17.9622C21.2439 17.653 21.4677 17.2682 21.5834 16.846C21.9974 15.281 22.0004 12.034 22.0004 12.034C22.0004 12.034 22.0204 8.76901 21.5934 7.20301ZM9.99633 15.005L10.0014 9.00501L15.2084 12.01L9.99633 15.005Z" fill="var(--fill-0, white)"/>
</g>
</svg>
