<svg preserveAspectRatio="none" width="100%" height="100%" overflow="visible" style="display: block;" viewBox="0 0 58 58" fill="none" xmlns="http://www.w3.org/2000/svg">
<g id="hacker">
<path id="Vector" fill-rule="evenodd" clip-rule="evenodd" d="M18.6447 19.5087C18.8256 17.6969 19.0767 15.9267 19.3693 14.1988C19.4532 13.7667 19.5368 13.3346 19.6057 12.9024C20.8047 13.0416 22.0033 13.153 23.2157 13.2368C21.5994 15.0486 19.9126 17.1814 18.6447 19.5087ZM46.0316 53.3488C47.3696 52.5398 48.0665 51.0349 47.7877 49.4738L46.1433 40.1079C45.8919 38.7142 45.1676 37.6135 43.9967 36.8467L43.1185 36.2614C43.2717 36.596 43.3414 36.9579 43.3414 37.3343V51.4668H46.0316V53.3488ZM40.6097 34.603L37.7386 32.7074C41.5161 27.8853 40.0525 21.7388 33.3347 14.2685C32.1919 12.9859 30.7142 12.3309 28.9997 12.3309C27.2855 12.3309 25.8085 12.9858 24.6659 14.2685C17.9475 21.7388 16.484 27.8853 20.2615 32.7074L17.3904 34.603H17.4039H40.6097ZM14.8811 36.2616L14.0036 36.8468C12.8327 37.6137 12.1077 38.7143 11.871 40.108L10.2122 49.4739C9.93352 51.035 10.6307 52.54 11.9826 53.3489V51.467H14.6585V37.3343C14.6585 36.958 14.7421 36.5961 14.8811 36.2616ZM35.5643 24.9024V25.446C35.5643 30.3939 32.6239 34.4077 28.9997 34.4077C25.3765 34.4077 22.4354 30.3939 22.4354 25.446C22.4354 25.265 22.4354 25.0839 22.4496 24.9024C26.6029 22.9511 31.4111 22.9511 35.5643 24.9024ZM42.8116 56.1223C43.6064 56.1223 44.2613 55.4813 44.2613 54.6865V53.2371H13.7383V54.6865C13.7383 55.4813 14.3932 56.1223 15.1878 56.1223L21.5993 57.3205H36.4009L42.8116 56.1223ZM17.4037 36.3728H40.6097C41.1396 36.3728 41.5715 36.8048 41.5715 37.3343V51.4668H16.4282V37.3343C16.4282 36.8048 16.8604 36.3728 17.4037 36.3728ZM31.3976 48.0667V48.972C31.3976 49.3068 31.1185 49.5997 30.77 49.5997H27.2298C26.8812 49.5997 26.6029 49.3068 26.6029 48.972V48.0667C25.1254 47.3138 24.1356 45.9199 24.1356 44.3171C24.1356 41.934 26.3099 40.0104 28.9997 40.0104C31.6902 40.0104 33.8641 41.9339 33.8641 44.3171C33.8641 45.9198 32.8746 47.3137 31.3976 48.0667ZM30.77 45.3344C30.2545 45.3344 29.8228 44.9166 29.8228 44.387C29.8228 43.8714 30.2545 43.4531 30.77 43.4531H30.7838C31.2998 43.4531 31.7318 43.8714 31.7318 44.387C31.7318 44.9167 31.2998 45.3344 30.7838 45.3344H30.77ZM27.2165 45.3344C26.7006 45.3344 26.282 44.9166 26.282 44.387C26.282 43.8714 26.7006 43.4531 27.2165 43.4531H27.2296C27.7598 43.4531 28.1776 43.8714 28.1776 44.387C28.1776 44.9167 27.7598 45.3344 27.2296 45.3344H27.2165ZM28.9997 47.5507C28.4706 47.5507 28.0525 47.1328 28.0525 46.6031C28.0525 46.0876 28.4706 45.6551 28.9997 45.6551H29.0143C29.5298 45.6551 29.9475 46.0876 29.9475 46.6031C29.9475 47.1328 29.5297 47.5507 29.0143 47.5507H28.9997ZM34.7981 13.2368C35.9963 13.153 37.2095 13.0416 38.3938 12.9024C38.4773 13.3346 38.5471 13.7667 38.6306 14.1988C38.9237 15.9267 39.1742 17.6969 39.3691 19.5087C38.087 17.1814 36.4148 15.0486 34.7981 13.2368ZM19.9969 11.0487C20.7353 7.63402 21.6963 4.41457 22.8395 1.41805C22.8537 1.40389 22.8537 1.38996 22.8676 1.37614C24.8328 0.915992 26.8953 0.679348 28.9995 0.679348C31.1184 0.679348 33.1674 0.915992 35.1465 1.37614C35.1465 1.38996 35.1465 1.40389 35.16 1.41805C36.3031 4.41457 37.265 7.63402 38.0035 11.0487C36.2469 11.244 34.4493 11.3831 32.6373 11.4666C31.5504 10.8675 30.3241 10.561 28.9997 10.561C27.6759 10.561 26.4496 10.8675 25.362 11.4666C23.5504 11.383 21.7526 11.244 19.9969 11.0487ZM8.86041 46.9376C7.42468 45.4048 6.17066 43.7038 5.11136 41.8646C6.58878 42.2404 8.08024 42.5891 9.57147 42.8959L8.86041 46.9376ZM3.95476 39.6062C2.36543 36.1221 1.48761 32.2613 1.48761 28.1913C1.48761 26.8676 1.58537 25.5574 1.76628 24.2891C6.30999 26.0729 11.2156 27.3554 16.3034 28.1636V28.1913C16.3034 29.8503 16.3446 31.495 16.4427 33.1115L13.0279 35.3695C11.4527 36.4147 10.4494 37.934 10.1286 39.8016L9.90565 41.0419C7.92663 40.6377 5.98963 40.1638 4.066 39.6201C4.02454 39.6062 3.996 39.6062 3.95476 39.6062ZM2.10091 22.394C3.06267 17.8921 5.13912 13.7945 8.01034 10.4074C8.09395 10.4775 8.19171 10.533 8.30295 10.5609C11.2156 11.4812 14.4079 12.1772 17.7387 12.6516C17.669 13.0558 17.5854 13.4736 17.5154 13.8779C16.8325 17.8219 16.4146 21.9752 16.3311 26.2545C11.3553 25.4598 6.5745 24.1777 2.17058 22.4218C2.14249 22.4074 2.11473 22.4074 2.10091 22.394ZM9.3764 8.91614C12.4705 5.76624 16.3169 3.35528 20.6238 1.98933C19.6339 4.7492 18.7837 7.70358 18.1149 10.7977C15.0347 10.3658 12.0801 9.73845 9.3764 8.91614ZM37.3766 1.98945C41.6832 3.35539 45.5295 5.76636 48.6236 8.91625C45.92 9.73856 42.9657 10.3658 39.8847 10.7979C39.2163 7.70369 38.38 4.74932 37.3766 1.98945ZM49.9898 10.4075C52.8605 13.7946 54.9378 17.8921 55.8992 22.3941C55.8856 22.4075 55.8576 22.4075 55.8434 22.4221C51.4255 24.178 46.6447 25.4602 41.6832 26.2549C41.5853 21.9755 41.1672 17.8222 40.4846 13.8782C40.4148 13.4739 40.3448 13.0561 40.2612 12.6519C43.5924 12.1775 46.7839 11.4815 49.6969 10.5612C49.8087 10.5331 49.9061 10.4775 49.9898 10.4075ZM56.2337 24.2892C56.4147 25.5574 56.5124 26.8677 56.5124 28.1914C56.5124 32.2614 55.6346 36.1222 54.0455 39.6063C54.0178 39.6063 53.9755 39.6063 53.9342 39.6202C52.0245 40.1639 50.0733 40.6377 48.0946 41.042L47.8851 39.8017C47.5509 37.9342 46.5475 36.4148 44.9724 35.3696L41.5577 33.1117C41.655 31.4951 41.697 29.8504 41.697 28.1914V28.1638C46.784 27.3555 51.7042 26.073 56.2337 24.2892ZM52.8882 41.8646C51.8289 43.7038 50.5749 45.4048 49.1391 46.9376L48.4288 42.8958C49.9338 42.5891 51.4117 42.2404 52.8882 41.8646Z" fill="var(--fill-0, white)"/>
</g>
</svg>
