<svg preserveAspectRatio="none" width="100%" height="100%" overflow="visible" style="display: block;" viewBox="0 0 58 58" fill="none" xmlns="http://www.w3.org/2000/svg">
<g id="bug">
<path id="Vector" d="M28.5803 22.6755V25.576C28.5803 28.4441 26.3927 30.8109 23.5984 31.0955V17.1559C26.3927 17.4404 28.5803 19.8073 28.5803 22.6755ZM22.9913 44.1713C11.3126 44.1713 1.81125 34.6701 1.81125 22.9913C1.81125 11.3126 11.3126 1.81125 22.9913 1.81125C34.6701 1.81125 44.1713 11.3126 44.1713 22.9913C44.1713 34.6701 34.6701 44.1713 22.9913 44.1713ZM40.1715 22.9913C40.1715 13.5182 32.4645 5.81121 22.9913 5.81121C13.5182 5.81121 5.81121 13.5182 5.81121 22.9913C5.81121 32.4645 13.5182 40.1715 22.9913 40.1715C32.4645 40.1715 40.1715 32.4645 40.1715 22.9913ZM42.9188 40.0903L40.1119 37.2835C39.255 38.3082 38.3081 39.255 37.2834 40.112L40.0902 42.9189C40.1118 42.8955 40.1314 42.8709 40.154 42.8483L42.8482 40.1541C42.8708 40.1315 42.8953 40.112 42.9186 40.0905L42.9188 40.0903ZM45.3597 40.955C45.1239 40.7193 44.8143 40.6014 44.5045 40.6014C44.1946 40.6014 43.885 40.7193 43.6492 40.955L40.955 43.6492C40.4835 44.1208 40.4835 44.8881 40.955 45.3597L50.8739 55.2788C52.0882 56.4928 54.0642 56.493 55.2786 55.2788C56.493 54.0643 56.493 52.0884 55.2786 50.8739L45.3597 40.955ZM17.4837 22.6755V25.576C17.4837 28.4441 19.6713 30.8109 22.4656 31.0955V17.1559C19.6713 17.4404 17.4837 19.8073 17.4837 22.6755ZM23.032 13.7994C21.4627 13.7994 20.1854 15.0709 20.1747 16.6376C21.0415 16.2257 22.0102 15.9944 23.032 15.9944C24.0538 15.9944 25.0225 16.2257 25.8893 16.6376C25.8786 15.0708 24.6012 13.7994 23.0319 13.7994H23.032ZM20.4199 13.6445C20.7121 13.3909 21.0396 13.1789 21.396 13.0183L20.4648 12.0871V10.6967C20.4648 10.3852 20.2112 10.1315 19.8965 10.1315C19.585 10.1315 19.3313 10.3852 19.3313 10.6967V12.3215C19.3313 12.466 19.3859 12.6136 19.4983 12.7228L20.4199 13.6445ZM31.0294 23.5669C31.0872 23.5349 31.1418 23.5445 31.19 23.5893L32.9111 25.3105C33.1296 25.5321 33.4891 25.5321 33.7107 25.3105C33.9323 25.089 33.9323 24.7326 33.7107 24.511L31.9895 22.7898C31.5817 22.382 30.9619 22.305 30.4642 22.5907L29.7128 23.0242V24.315C29.7481 24.3022 29.7835 24.2893 29.8155 24.2701L31.0293 23.5668L31.0294 23.5669ZM16.3514 23.0692L15.5196 22.5907C15.0219 22.3049 14.4021 22.382 13.9976 22.7898L12.2764 24.511C12.0548 24.7326 12.0548 25.089 12.2764 25.3105C12.498 25.5321 12.8544 25.5321 13.0759 25.3105L14.7971 23.5893C14.8421 23.5444 14.8999 23.5347 14.9545 23.5669L16.2036 24.2894C16.2518 24.3151 16.2999 24.3344 16.3514 24.3472V23.0692ZM16.5922 20.8952C16.7014 20.5035 16.8458 20.1245 17.0224 19.7617H14.6526C14.6205 19.7617 14.5915 19.7552 14.5723 19.7393C14.5498 19.7232 14.5369 19.6975 14.5273 19.6686L13.5736 16.1106C13.4933 15.8087 13.185 15.629 12.8832 15.7093C12.5814 15.7896 12.4016 16.101 12.4819 16.4029L13.4356 19.9608C13.5095 20.237 13.67 20.4714 13.8851 20.6352C14.1002 20.8022 14.3668 20.8953 14.6526 20.8953H16.5921L16.5922 20.8952ZM17.0224 28.4894C16.8458 28.1266 16.7013 27.7477 16.5922 27.3559H14.6527C14.0779 27.3559 13.5834 27.738 13.4357 28.2936L12.482 31.8483C12.4017 32.1502 12.5816 32.4616 12.8834 32.542C13.1853 32.6223 13.4935 32.4424 13.5737 32.1406L14.5274 28.5858C14.5435 28.5216 14.5885 28.4896 14.6527 28.4896H17.0225L17.0224 28.4894ZM29.0417 19.7616C29.2151 20.1244 29.3596 20.5033 29.4719 20.8951H31.3312C31.906 20.8951 32.4038 20.513 32.5515 19.9606L33.5052 16.4027C33.5855 16.1008 33.4056 15.7894 33.1038 15.7091C32.8019 15.6287 32.4937 15.8086 32.4102 16.1104L31.4597 19.6683C31.4436 19.7294 31.3986 19.7615 31.3312 19.7615H29.0417V19.7616ZM29.4719 27.3558C29.3627 27.7476 29.215 28.1265 29.0417 28.4893H31.3312C31.3986 28.4893 31.4436 28.5214 31.4597 28.5856L32.4102 32.1404C32.4937 32.4423 32.8019 32.6221 33.1038 32.5417C33.4057 32.4614 33.5855 32.15 33.5052 31.8481L32.5515 28.2934C32.4038 27.7378 31.906 27.3557 31.3312 27.3557L29.4719 27.3558ZM24.6681 13.0182C25.0245 13.1787 25.3521 13.3906 25.6443 13.6444L26.5658 12.7228C26.675 12.6136 26.7328 12.4659 26.7328 12.3215V10.6967C26.7328 10.3852 26.4792 10.1315 26.1645 10.1315C25.8529 10.1315 25.5993 10.3852 25.5993 10.6967V12.0871L24.6681 13.0182Z" fill="var(--fill-0, white)"/>
</g>
</svg>
