<svg preserveAspectRatio="none" width="100%" height="100%" overflow="visible" style="display: block;" viewBox="0 0 58 58" fill="none" xmlns="http://www.w3.org/2000/svg">
<g id="white-hat">
<path id="Vector" fill-rule="evenodd" clip-rule="evenodd" d="M53.1481 29.2518C50.7424 30.4294 47.2359 31.4903 43.1591 32.3567L42.8994 32.4118C42.8959 32.3864 42.8925 32.3612 42.8888 32.3359C42.5184 29.7399 41.2573 27.3532 39.3214 25.5843C40.3258 25.4361 41.3049 25.2769 42.2585 25.1066C43.4635 24.8917 44.6599 24.6544 45.8478 24.3947C45.9861 25.622 46.1296 26.9217 46.2782 28.2938C46.2989 28.4646 46.386 28.6204 46.5206 28.7276C46.6553 28.8347 46.8267 28.8846 46.9978 28.8664C47.1689 28.8482 47.326 28.7635 47.4351 28.6304C47.5442 28.4974 47.5966 28.3267 47.581 28.1554C47.383 26.3317 47.1945 24.6358 47.0153 23.0678C49.7307 23.2771 52.0072 23.6675 53.6623 24.2169C55.2317 24.738 56.1852 25.3579 56.3317 26.0468H56.3327L56.336 26.0627C56.5412 27.094 55.3224 28.1875 53.1481 29.2518ZM39.6937 39.9639L39.6711 39.9922L39.6722 39.993C38.0731 42.1127 35.6994 43.5126 33.0705 43.8862C30.4417 44.2599 27.772 43.5769 25.6455 41.9868L25.6173 41.9641L25.6165 41.9653C23.5222 40.3859 22.1293 38.0493 21.7363 35.4558C21.3432 32.8623 21.981 30.218 23.5133 28.0889C25.0456 25.9598 27.3505 24.5152 29.9346 24.0644C32.5187 23.6135 35.1766 24.1923 37.3393 25.6767C37.3487 25.6835 37.3581 25.6899 37.3679 25.6963C37.47 25.7671 37.5713 25.8401 37.6718 25.9151C38.728 26.7037 39.6181 27.6931 40.2907 28.8267C40.9633 29.9603 41.4053 31.2156 41.5913 32.5206C41.6221 32.734 41.6459 32.9483 41.6627 33.1634C41.6595 33.2185 41.6633 33.2737 41.674 33.3278C41.8259 35.7052 41.1236 38.0586 39.6937 39.9639ZM39.8094 32.0612C39.8035 32.0178 39.7932 31.9752 39.7787 31.9339C39.2501 29.8017 37.9039 27.9631 36.0309 26.8152C34.1579 25.6674 31.9085 25.3025 29.7687 25.7994C29.7253 25.8052 29.6825 25.8155 29.6411 25.8299C27.49 26.3608 25.6374 27.723 24.4893 29.6179C23.3413 31.5127 22.9916 33.7856 23.5169 35.9379C24.0423 38.0903 25.3998 39.9464 27.2918 41.0993C29.1838 42.2521 31.4557 42.6075 33.6094 42.0876H33.6111C35.7584 41.5729 37.6151 40.23 38.7763 38.3518C39.9374 36.4736 40.3088 34.2125 39.8094 32.0615V32.0612ZM22.747 25.4636H23.5651C23.752 25.4624 23.9413 25.4606 24.1331 25.4583C25.9981 23.8063 28.3551 22.8141 30.8401 22.6348C33.3251 22.4556 35.8 23.0993 37.8828 24.4666C39.2675 24.2786 40.6507 24.0613 42.0324 23.8146C43.2936 23.5897 44.5157 23.3472 45.6987 23.0873C45.6741 22.8733 45.6497 22.6618 45.6255 22.4529C45.624 22.4416 45.6227 22.431 45.6216 22.4199C45.5129 21.4813 45.4069 20.5887 45.3038 19.7422C41.6614 20.5472 37.9772 21.1494 34.2681 21.5461C30.1281 21.9921 25.9669 22.2143 21.8029 22.2116C20.3323 22.2116 18.8391 22.1828 17.3233 22.1253C16.0222 22.0762 14.7532 22.008 13.5163 21.9206C13.4 22.9166 13.2802 23.9671 13.1567 25.0721C14.604 25.1925 16.079 25.286 17.5818 25.3526C19.2518 25.4261 20.9737 25.4631 22.7474 25.4636H22.747ZM22.577 27.1527C22.673 27.0243 22.7712 26.8987 22.8715 26.776L22.7478 26.7767C21.0156 26.7767 19.2749 26.738 17.5255 26.6604C16.0093 26.5936 14.5049 26.4975 13.0124 26.3722C12.9437 26.9959 12.8736 27.6365 12.8021 28.294C12.7838 28.4668 12.6976 28.6252 12.5624 28.7343C12.4273 28.8435 12.2543 28.8945 12.0816 28.8762C11.9088 28.8578 11.7504 28.7716 11.6412 28.6365C11.5321 28.5013 11.481 28.3284 11.4994 28.1556C11.6441 26.823 11.7836 25.559 11.9179 24.3637C9.31161 24.5362 6.86949 25.0434 4.99287 25.7382C3.10107 26.4381 1.84229 27.2752 1.70024 28.0704C1.66181 28.2773 1.64205 28.4873 1.64122 28.6978C1.6453 29.9498 2.4309 30.9843 3.80036 31.8227C5.29318 32.7369 7.45289 33.4116 10.056 33.8766C13.0382 34.4091 16.571 34.6612 20.3361 34.6785C20.1596 31.9827 20.9546 29.3129 22.577 27.1527ZM21.8034 20.8982C25.9209 20.9019 30.0357 20.6833 34.1297 20.2434C37.8316 19.8473 41.5084 19.2436 45.1426 18.4349C44.8859 16.4 44.6431 14.6494 44.4062 13.1566C43.8908 9.91188 43.4094 7.90103 42.877 6.8355C41.4647 6.26321 39.6574 6.04571 37.7092 6.08162C35.2963 6.12614 32.6737 6.56204 30.3072 7.19857C29.7754 7.34504 29.226 7.41814 28.6744 7.41584C28.121 7.41041 27.571 7.32934 27.0396 7.17489C24.9878 6.59104 22.9875 6.18063 21.1127 6.0951C19.3534 6.01478 17.6977 6.21914 16.205 6.8346C15.6726 7.89944 15.1912 9.91109 14.6757 13.1567C14.3577 15.1585 14.03 17.6236 13.6712 20.6167C14.9087 20.7039 16.1417 20.7707 17.3702 20.8172C18.7938 20.8709 20.2713 20.8979 21.8029 20.8982H21.8034ZM35.3488 27.933C34.5587 27.447 33.6802 27.122 32.764 26.9767C31.8478 26.8313 30.9119 26.8684 30.0101 27.0859C28.3598 27.4832 26.9077 28.4615 25.9195 29.8417C24.9313 31.2219 24.4731 32.9117 24.6287 34.6021C27.0316 34.5092 29.4844 34.3334 31.9121 34.0854C34.2131 33.8504 36.4902 33.5498 38.6791 33.1932C38.6464 32.8931 38.5946 32.5954 38.5241 32.3019C38.3087 31.4004 37.9173 30.5503 37.3723 29.8005C36.8273 29.0508 36.1395 28.4161 35.3484 27.933H35.3488ZM41.0904 40.2551C40.9855 40.4117 40.8762 40.5665 40.7626 40.7195L40.764 40.7205L40.7414 40.7489C40.4905 41.084 40.2214 41.4052 39.9355 41.7111L43.9157 44.7243L43.9185 44.7206L45.0286 43.2366L41.0904 40.2551ZM53.7682 48.2251L47.7968 43.7564C47.5965 43.6066 47.3546 43.5226 47.1046 43.5161C46.8515 43.509 46.6024 43.5799 46.3909 43.7191H46.39C46.3321 43.7575 46.2775 43.8008 46.2268 43.8485C46.1763 43.8958 46.1299 43.9474 46.0882 44.0027L44.9638 45.5053C44.8761 45.6229 44.8108 45.7557 44.7712 45.897V45.8978C44.7031 46.1375 44.7089 46.3923 44.788 46.6286C44.866 46.862 45.0133 47.066 45.2103 47.2135L51.1811 51.6822C51.4412 51.8738 51.7662 51.9553 52.0859 51.9091C52.4056 51.863 52.6943 51.6929 52.8895 51.4356L54.0148 49.9321C54.2059 49.672 54.2871 49.3472 54.2408 49.0277C54.1946 48.7083 54.0245 48.4198 53.7675 48.2246L53.7682 48.2251Z" fill="var(--fill-0, white)"/>
</g>
</svg>
