<svg preserveAspectRatio="none" width="100%" height="100%" overflow="visible" style="display: block;" viewBox="0 0 1982 1518" fill="none" xmlns="http://www.w3.org/2000/svg">
<g id="Frame 1984078260">
<g id="Group 427318936">
<g id="Vector 41" filter="url(#filter0_f_42162_1992)">
<path d="M1747.56 810.053C1736.74 906.133 1657.56 1081.79 1427.41 1015.78C1139.72 933.27 374.016 386.624 255.2 577.501C160.147 730.202 427.924 992.257 491.183 992.257" stroke="url(#paint0_linear_42162_1992)" stroke-width="28.604" stroke-linecap="round"/>
</g>
<g id="Vector 40" filter="url(#filter1_f_42162_1992)">
<path d="M1747.56 810.053C1736.74 906.133 1657.56 1081.79 1427.41 1015.78C1139.72 933.27 374.016 386.624 255.2 577.501C160.147 730.202 427.924 992.257 491.183 992.257" stroke="url(#paint1_linear_42162_1992)" stroke-width="17.6024" stroke-linecap="round"/>
</g>
</g>
<g id="Vector 29" filter="url(#filter2_f_42162_1992)">
<path d="M681.812 221.118L1504.85 245.594L1311.21 1284.45L477.575 1296.51L681.812 221.118Z" fill="var(--fill-0, black)"/>
<path d="M681.812 221.118L1504.85 245.594L1311.21 1284.45L477.575 1296.51L681.812 221.118Z" stroke="var(--stroke-0, black)" stroke-width="1.10015"/>
</g>
<g id="Ellipse 6106" filter="url(#filter3_f_42162_1992)">
<path d="M634.356 983.98C634.356 1045.35 575.249 1095.1 502.337 1095.1C429.426 1095.1 370.319 1045.35 370.319 983.98C370.319 922.613 429.426 872.865 502.337 872.865C575.249 872.865 634.356 922.613 634.356 983.98Z" fill="var(--fill-0, black)"/>
</g>
</g>
<defs>
<filter id="filter0_f_42162_1992" x="0.670165" y="302.987" width="1981.22" height="961.598" filterUnits="userSpaceOnUse" color-interpolation-filters="sRGB">
<feFlood flood-opacity="0" result="BackgroundImageFix"/>
<feBlend mode="normal" in="SourceGraphic" in2="BackgroundImageFix" result="shape"/>
<feGaussianBlur stdDeviation="110.015" result="effect1_foregroundBlur_42162_1992"/>
</filter>
<filter id="filter1_f_42162_1992" x="221.8" y="524.117" width="1538.96" height="519.339" filterUnits="userSpaceOnUse" color-interpolation-filters="sRGB">
<feFlood flood-opacity="0" result="BackgroundImageFix"/>
<feBlend mode="normal" in="SourceGraphic" in2="BackgroundImageFix" result="shape"/>
<feGaussianBlur stdDeviation="2.20031" result="effect1_foregroundBlur_42162_1992"/>
</filter>
<filter id="filter2_f_42162_1992" x="256.878" y="0.523767" width="1468.66" height="1516.57" filterUnits="userSpaceOnUse" color-interpolation-filters="sRGB">
<feFlood flood-opacity="0" result="BackgroundImageFix"/>
<feBlend mode="normal" in="SourceGraphic" in2="BackgroundImageFix" result="shape"/>
<feGaussianBlur stdDeviation="110.015" result="effect1_foregroundBlur_42162_1992"/>
</filter>
<filter id="filter3_f_42162_1992" x="265.914" y="768.46" width="472.846" height="431.04" filterUnits="userSpaceOnUse" color-interpolation-filters="sRGB">
<feFlood flood-opacity="0" result="BackgroundImageFix"/>
<feBlend mode="normal" in="SourceGraphic" in2="BackgroundImageFix" result="shape"/>
<feGaussianBlur stdDeviation="52.2022" result="effect1_foregroundBlur_42162_1992"/>
</filter>
<linearGradient id="paint0_linear_42162_1992" x1="138.034" y1="649.561" x2="1476.01" y2="922.615" gradientUnits="userSpaceOnUse">
<stop stop-color="#3EFF51"/>
<stop offset="1" stop-color="#00B0FF"/>
</linearGradient>
<linearGradient id="paint1_linear_42162_1992" x1="204.593" y1="630.308" x2="1751.54" y2="804.522" gradientUnits="userSpaceOnUse">
<stop offset="0.0503858" stop-color="#3EFF51" stop-opacity="0"/>
<stop offset="0.144231" stop-color="#3EFF51"/>
<stop offset="0.850962" stop-color="#00B0FF"/>
<stop offset="1" stop-color="#00B0FF" stop-opacity="0"/>
</linearGradient>
</defs>
</svg>
