<svg width="58" height="58" viewBox="0 0 58 58" fill="none" xmlns="http://www.w3.org/2000/svg">
<path fill-rule="evenodd" clip-rule="evenodd" d="M33.6694 4.18764L20.339 27.2765C21.969 28.0319 23.2918 29.3217 24.0881 30.9321C24.8844 32.5424 25.1063 34.3766 24.7171 36.1305H52.1115C52.5475 36.1316 52.976 36.0176 53.3538 35.8002C53.7316 35.5827 54.0454 35.2693 54.2633 34.8918C54.4813 34.5143 54.5958 34.0859 54.5952 33.6499C54.5947 33.214 54.4791 32.7859 54.2602 32.4089L37.9666 4.18764C37.7496 3.80955 37.4366 3.49542 37.0594 3.27697C36.6821 3.05852 36.2539 2.94348 35.818 2.94348C35.382 2.94348 34.9538 3.05852 34.5765 3.27697C34.1993 3.49542 33.8864 3.80955 33.6694 4.18764ZM39.3577 38.6805C39.4413 38.5944 39.5413 38.5257 39.6518 38.4785C39.7623 38.4313 39.881 38.4066 40.0011 38.4057C40.1213 38.4048 40.2404 38.4278 40.3515 38.4734C40.4627 38.5189 40.5636 38.5861 40.6486 38.6711C40.7335 38.756 40.8007 38.857 40.8463 38.9681C40.8919 39.0793 40.9149 39.1984 40.914 39.3185C40.9132 39.4386 40.8884 39.5573 40.8412 39.6678C40.7941 39.7783 40.7254 39.8783 40.6392 39.962L37.8204 42.7809C37.6505 42.9508 37.42 43.0462 37.1797 43.0462C36.9394 43.0462 36.7089 42.9508 36.539 42.7809L35.1296 41.3714C34.9652 41.2004 34.8744 40.9716 34.8768 40.7344C34.8792 40.4972 34.9745 40.2703 35.1423 40.1026C35.31 39.9348 35.5369 39.8396 35.7742 39.8373C36.0114 39.835 36.2401 39.9258 36.4111 40.0902L37.1797 40.8589L39.3577 38.6809V38.6805ZM39.3577 47.8189C39.5284 47.6531 39.7576 47.5611 39.9957 47.5628C40.2337 47.5645 40.4615 47.6599 40.6299 47.8282C40.7982 47.9965 40.8935 48.2243 40.8953 48.4624C40.897 48.7004 40.8051 48.9296 40.6392 49.1004L37.8204 51.9192C37.6505 52.0891 37.42 52.1845 37.1797 52.1845C36.9394 52.1845 36.7089 52.0891 36.539 51.9192L35.1296 50.5098C34.9627 50.3392 34.8699 50.1097 34.8713 49.8711C34.8726 49.6326 34.968 49.4041 35.1367 49.2354C35.3054 49.0667 35.5338 48.9713 35.7724 48.97C36.011 48.9686 36.2405 49.0615 36.4111 49.2283L37.1797 49.9969L39.3577 47.8189ZM42.6053 41.6368C42.365 41.6368 42.1345 41.5414 41.9645 41.3714C41.7945 41.2015 41.6991 40.9709 41.6991 40.7306C41.6991 40.4902 41.7945 40.2597 41.9645 40.0898C42.1345 39.9198 42.365 39.8243 42.6053 39.8243H54.6018C54.8422 39.8243 55.0727 39.9198 55.2426 40.0898C55.4126 40.2597 55.5081 40.4902 55.5081 40.7306C55.5081 40.9709 55.4126 41.2015 55.2426 41.3714C55.0727 41.5414 54.8422 41.6368 54.6018 41.6368H42.6053ZM42.6053 50.7752C42.365 50.7752 42.1345 50.6798 41.9645 50.5098C41.7945 50.3398 41.6991 50.1093 41.6991 49.869C41.6991 49.6286 41.7945 49.3981 41.9645 49.2282C42.1345 49.0582 42.365 48.9627 42.6053 48.9627H54.6018C54.8422 48.9627 55.0727 49.0582 55.2426 49.2282C55.4126 49.3981 55.5081 49.6286 55.5081 49.869C55.5081 50.1093 55.4126 50.3398 55.2426 50.5098C55.0727 50.6798 54.8422 50.7752 54.6018 50.7752H42.6053ZM42.6053 54.1253C42.365 54.1253 42.1345 54.0298 41.9645 53.8599C41.7945 53.6899 41.6991 53.4594 41.6991 53.2191C41.6991 52.9787 41.7945 52.7482 41.9645 52.5782C42.1345 52.4083 42.365 52.3128 42.6053 52.3128H48.6037C48.844 52.3128 49.0745 52.4083 49.2445 52.5782C49.4144 52.7482 49.5099 52.9787 49.5099 53.2191C49.5099 53.4594 49.4144 53.6899 49.2445 53.8599C49.0745 54.0298 48.844 54.1253 48.6037 54.1253H42.6053ZM42.6053 44.9869C42.365 44.9869 42.1345 44.8914 41.9645 44.7215C41.7945 44.5515 41.6991 44.321 41.6991 44.0807C41.6991 43.8403 41.7945 43.6098 41.9645 43.4398C42.1345 43.2699 42.365 43.1744 42.6053 43.1744H48.6037C48.844 43.1744 49.0745 43.2699 49.2445 43.4398C49.4144 43.6098 49.5099 43.8403 49.5099 44.0807C49.5099 44.321 49.4144 44.5515 49.2445 44.7215C49.0745 44.8914 48.844 44.9869 48.6037 44.9869H42.6053ZM12.8515 41.0871C10.0253 41.9349 7.5226 43.6197 5.67367 45.9192C3.82474 48.2187 2.71652 51.0248 2.49526 53.9672C2.48437 54.1064 2.50248 54.2464 2.54844 54.3783C2.5944 54.5102 2.66721 54.6311 2.76228 54.7334C2.85734 54.8358 2.97259 54.9173 3.10075 54.9728C3.22891 55.0283 3.36719 55.0567 3.50686 55.056H30.5614C30.701 55.0567 30.8393 55.0283 30.9675 54.9728C31.0956 54.9173 31.2109 54.8358 31.306 54.7334C31.401 54.6311 31.4738 54.5102 31.5198 54.3783C31.5658 54.2464 31.5839 54.1064 31.573 53.9672C31.3517 51.0248 30.2435 48.2187 28.3946 45.9192C26.5456 43.6197 24.0429 41.9349 21.2167 41.0871C19.9634 41.8736 18.5138 42.2908 17.0341 42.2908C15.5545 42.2908 14.1048 41.8736 12.8515 41.0871ZM17.0341 28.3629C18.2322 28.3628 19.4034 28.7179 20.3996 29.3835C21.3959 30.049 22.1724 30.995 22.6309 32.1019C23.0895 33.2088 23.2095 34.4267 22.9758 35.6018C22.7422 36.7769 22.1653 37.8563 21.3181 38.7035C20.471 39.5507 19.3916 40.1277 18.2166 40.3614C17.0415 40.5952 15.8235 40.4753 14.7166 40.0168C13.6097 39.5583 12.6637 38.7819 11.9981 37.7857C11.3324 36.7895 10.9772 35.6183 10.9772 34.4203C10.9772 33.6248 11.1339 32.8371 11.4383 32.1021C11.7427 31.3672 12.1889 30.6994 12.7514 30.1369C13.3139 29.5744 13.9816 29.1283 14.7166 28.8238C15.4515 28.5194 16.2392 28.3628 17.0347 28.3628L17.0341 28.3629ZM35.818 27.8882C36.1764 27.8882 36.5269 27.9945 36.8249 28.1937C37.123 28.3929 37.3553 28.6759 37.4925 29.0071C37.6297 29.3383 37.6656 29.7027 37.5956 30.0543C37.5257 30.4059 37.3531 30.7289 37.0996 30.9824C36.8461 31.2358 36.5232 31.4085 36.1716 31.4784C35.82 31.5483 35.4555 31.5124 35.1243 31.3753C34.7932 31.2381 34.5101 31.0058 34.3109 30.7077C34.1118 30.4096 34.0055 30.0592 34.0055 29.7007C34.0055 29.22 34.1964 28.759 34.5363 28.4191C34.8762 28.0792 35.3373 27.8882 35.818 27.8882ZM35.818 13.3984C36.1782 13.3995 36.5233 13.543 36.778 13.7977C37.0327 14.0524 37.1763 14.3976 37.1773 14.7578V23.3602C37.1773 23.7207 37.0341 24.0664 36.7792 24.3214C36.5243 24.5763 36.1785 24.7195 35.818 24.7195C35.4574 24.7195 35.1117 24.5763 34.8567 24.3214C34.6018 24.0664 34.4586 23.7207 34.4586 23.3602V14.7577C34.4596 14.3975 34.6032 14.0523 34.8579 13.7976C35.1126 13.5429 35.4578 13.3995 35.818 13.3984ZM37.0395 26.2869C37.8434 26.5746 38.52 27.137 38.9499 27.8748C39.3799 28.6126 39.5355 29.4784 39.3895 30.3198C39.2435 31.1611 38.8051 31.9239 38.1517 32.4737C37.4983 33.0234 36.6718 33.3249 35.8179 33.3249C34.964 33.3249 34.1375 33.0234 33.4841 32.4737C32.8307 31.9239 32.3923 31.1611 32.2463 30.3198C32.1003 29.4784 32.2559 28.6126 32.6859 27.8748C33.1158 27.137 33.7924 26.5746 34.5963 26.2869C34.0193 26.0452 33.5264 25.6385 33.1795 25.1178C32.8325 24.5972 32.647 23.9857 32.6461 23.36V14.7577C32.6461 13.9165 32.9803 13.1097 33.5751 12.5148C34.1699 11.92 34.9767 11.5858 35.818 11.5858C36.6592 11.5858 37.466 11.92 38.0608 12.5148C38.6557 13.1097 38.9898 13.9165 38.9898 14.7577V23.36C38.9889 23.9857 38.8034 24.5972 38.4564 25.1179C38.1095 25.6385 37.6166 26.0452 37.0395 26.2869Z" fill="white"/>
</svg>
