<svg width="58" height="58" viewBox="0 0 58 58" fill="none" xmlns="http://www.w3.org/2000/svg">
<path fill-rule="evenodd" clip-rule="evenodd" d="M18.6449 19.5087C18.8258 17.6969 19.0769 15.9266 19.3695 14.1988C19.4534 13.7667 19.537 13.3345 19.6059 12.9024C20.8049 13.0416 22.0035 13.1529 23.2159 13.2368C21.5996 15.0486 19.9128 17.1813 18.6449 19.5087ZM46.0318 53.3488C47.3698 52.5398 48.0667 51.0349 47.7879 49.4737L46.1435 40.1079C45.8921 38.7142 45.1678 37.6134 43.9969 36.8466L43.1187 36.2614C43.2719 36.5959 43.3416 36.9579 43.3416 37.3343V51.4668H46.0318V53.3488ZM40.6099 34.603L37.7388 32.7073C41.5163 27.8853 40.0527 21.7388 33.3349 14.2684C32.1921 12.9859 30.7144 12.3309 28.9998 12.3309C27.2857 12.3309 25.8087 12.9857 24.666 14.2684C17.9477 21.7388 16.4842 27.8853 20.2617 32.7073L17.3906 34.603H17.404H40.6099ZM14.8813 36.2615L14.0038 36.8467C12.8329 37.6137 12.1079 38.7143 11.8712 40.108L10.2124 49.4739C9.9337 51.035 10.6308 52.5399 11.9827 53.3489V51.4669H14.6587V37.3343C14.6587 36.958 14.7423 36.596 14.8813 36.2615ZM35.5645 24.9024V25.446C35.5645 30.3939 32.6241 34.4077 28.9998 34.4077C25.3767 34.4077 22.4355 30.3939 22.4355 25.446C22.4355 25.265 22.4355 25.0838 22.4498 24.9024C26.603 22.9511 31.4113 22.9511 35.5645 24.9024ZM42.8118 56.1222C43.6066 56.1222 44.2614 55.4813 44.2614 54.6865V53.2371H13.7385V54.6865C13.7385 55.4813 14.3934 56.1222 15.188 56.1222L21.5995 57.3205H36.4011L42.8118 56.1222ZM17.4039 36.3728H40.6099C41.1397 36.3728 41.5717 36.8048 41.5717 37.3343V51.4668H16.4283V37.3343C16.4283 36.8048 16.8606 36.3728 17.4039 36.3728ZM31.3978 48.0667V48.972C31.3978 49.3068 31.1187 49.5997 30.7702 49.5997H27.2299C26.8814 49.5997 26.603 49.3068 26.603 48.972V48.0667C25.1256 47.3138 24.1358 45.9199 24.1358 44.3171C24.1358 41.934 26.3101 40.0103 28.9998 40.0103C31.6904 40.0103 33.8643 41.9339 33.8643 44.3171C33.8643 45.9198 32.8747 47.3137 31.3978 48.0667ZM30.7702 45.3343C30.2547 45.3343 29.8229 44.9166 29.8229 44.387C29.8229 43.8714 30.2547 43.4531 30.7702 43.4531H30.784C31.3 43.4531 31.732 43.8714 31.732 44.387C31.732 44.9167 31.3 45.3343 30.784 45.3343H30.7702ZM27.2167 45.3343C26.7008 45.3343 26.2822 44.9166 26.2822 44.387C26.2822 43.8714 26.7008 43.4531 27.2167 43.4531H27.2298C27.76 43.4531 28.1778 43.8714 28.1778 44.387C28.1778 44.9167 27.76 45.3343 27.2298 45.3343H27.2167ZM28.9998 47.5507C28.4708 47.5507 28.0527 47.1328 28.0527 46.6031C28.0527 46.0875 28.4708 45.655 28.9998 45.655H29.0145C29.53 45.655 29.9477 46.0875 29.9477 46.6031C29.9477 47.1328 29.5299 47.5507 29.0145 47.5507H28.9998ZM34.7983 13.2368C35.9964 13.1529 37.2097 13.0416 38.394 12.9024C38.4775 13.3345 38.5473 13.7667 38.6308 14.1988C38.9239 15.9266 39.1744 17.6969 39.3693 19.5087C38.0872 17.1813 36.415 15.0486 34.7983 13.2368ZM19.997 11.0486C20.7355 7.634 21.6965 4.41454 22.8397 1.41803C22.8539 1.40387 22.8539 1.38993 22.8678 1.37611C24.833 0.915966 26.8955 0.679321 28.9997 0.679321C31.1185 0.679321 33.1676 0.915966 35.1467 1.37611C35.1467 1.38993 35.1467 1.40387 35.1602 1.41803C36.3033 4.41454 37.2652 7.634 38.0037 11.0486C36.2471 11.2439 34.4495 11.383 32.6375 11.4665C31.5506 10.8675 30.3243 10.561 28.9998 10.561C27.676 10.561 26.4498 10.8675 25.3622 11.4665C23.5506 11.3829 21.7528 11.2439 19.997 11.0486ZM8.86059 46.9376C7.42486 45.4048 6.17084 43.7038 5.11155 41.8645C6.58896 42.2404 8.08042 42.5891 9.57166 42.8958L8.86059 46.9376ZM3.95495 39.6062C2.36561 36.1221 1.48779 32.2612 1.48779 28.1913C1.48779 26.8676 1.58555 25.5574 1.76646 24.2891C6.31018 26.0729 11.2158 27.3554 16.3036 28.1636V28.1913C16.3036 29.8503 16.3447 31.495 16.4428 33.1115L13.0281 35.3694C11.4529 36.4147 10.4496 37.934 10.1288 39.8016L9.90584 41.0419C7.92681 40.6377 5.98982 40.1637 4.06619 39.6201C4.02473 39.6062 3.99618 39.6062 3.95495 39.6062ZM2.1011 22.394C3.06286 17.8921 5.1393 13.7945 8.01053 10.4073C8.09413 10.4775 8.19189 10.533 8.30313 10.5608C11.2158 11.4811 14.4081 12.1771 17.7389 12.6516C17.6692 13.0558 17.5856 13.4735 17.5156 13.8778C16.8326 17.8218 16.4148 21.9752 16.3313 26.2545C11.3555 25.4598 6.57469 24.1777 2.17077 22.4217C2.14267 22.4073 2.11492 22.4073 2.1011 22.394ZM9.37659 8.91611C12.4706 5.76622 16.3171 3.35525 20.6239 1.98931C19.6341 4.74918 18.7839 7.70355 18.1151 10.7977C15.0349 10.3658 12.0803 9.73842 9.37659 8.91611ZM37.3768 1.98942C41.6834 3.35536 45.5297 5.76633 48.6238 8.91623C45.9202 9.73854 42.9658 10.3658 39.8849 10.7978C39.2165 7.70366 38.3802 4.74929 37.3768 1.98942ZM49.99 10.4075C52.8607 13.7946 54.938 17.8921 55.8994 22.3941C55.8858 22.4075 55.8578 22.4075 55.8435 22.4221C51.4257 24.1779 46.6449 25.4602 41.6834 26.2548C41.5855 21.9755 41.1674 17.8222 40.4848 13.8782C40.415 13.4739 40.345 13.0561 40.2614 12.6519C43.5926 12.1775 46.7841 11.4815 49.6971 10.5612C49.8089 10.5331 49.9062 10.4775 49.99 10.4075ZM56.2339 24.2892C56.4149 25.5574 56.5126 26.8677 56.5126 28.1914C56.5126 32.2613 55.6348 36.1222 54.0457 39.6063C54.018 39.6063 53.9756 39.6063 53.9344 39.6202C52.0247 40.1638 50.0734 40.6377 48.0948 41.042L47.8853 39.8017C47.5511 37.9341 46.5477 36.4148 44.9726 35.3695L41.5579 33.1116C41.6552 31.4951 41.6972 29.8504 41.6972 28.1914V28.1637C46.7842 27.3555 51.7044 26.073 56.2339 24.2892ZM52.8884 41.8645C51.8291 43.7038 50.5751 45.4048 49.1393 46.9376L48.4289 42.8957C49.934 42.5891 51.4119 42.2404 52.8884 41.8645Z" fill="white"/>
</svg>
