<svg width="58" height="58" viewBox="0 0 58 58" fill="none" xmlns="http://www.w3.org/2000/svg">
<path d="M15.064 31.4167H29.564V22.9583H15.064V31.4167ZM17.6795 24.7366C17.7651 24.603 17.8764 24.4876 18.0067 24.3971C18.1371 24.3065 18.284 24.2426 18.4391 24.2089C18.5942 24.1753 18.7545 24.1726 18.9106 24.201C19.0668 24.2293 19.2158 24.2883 19.3492 24.3744L22.3051 26.273L25.2546 24.3283C25.5221 24.159 25.8455 24.1015 26.155 24.1681C26.4646 24.2347 26.7356 24.4202 26.9099 24.6846C27.0841 24.949 27.1476 25.2712 27.0868 25.582C27.0259 25.8927 26.8455 26.1671 26.5844 26.3462C25.9511 26.6778 22.7906 29.0775 22.314 28.9234C21.8718 29.0871 18.507 26.6213 18.0429 26.4065C17.9093 26.3207 17.794 26.2095 17.7035 26.0791C17.613 25.9488 17.549 25.8019 17.5152 25.6468C17.4815 25.4918 17.4786 25.3316 17.5068 25.1754C17.535 25.0192 17.5937 24.8701 17.6795 24.7366ZM53.8108 28.883C53.8013 29.7689 53.4828 30.6236 52.9104 31.2997C52.338 31.9758 51.5476 32.4308 50.6754 32.5864C49.8033 32.7419 48.9043 32.5882 48.1334 32.1517C47.3626 31.7151 46.7683 31.0232 46.4531 30.1954H43.9837C43.6632 30.1954 43.3559 30.0681 43.1293 29.8414C42.9027 29.6148 42.7754 29.3075 42.7754 28.987C42.7754 28.6666 42.9027 28.3592 43.1293 28.1326C43.3559 27.906 43.6632 27.7787 43.9837 27.7787H46.3885C46.6588 26.9146 47.2288 26.1755 47.9959 25.6946C48.7629 25.2137 49.6766 25.0226 50.5721 25.1559C51.4676 25.2891 52.286 25.7379 52.8799 26.4213C53.4737 27.1047 53.8039 27.9777 53.8108 28.883ZM45.2593 38.6392V36.1698C45.2579 34.8883 44.7483 33.6597 43.8422 32.7536C42.936 31.8475 41.7074 31.3378 40.426 31.3364H36.814V26.6636H40.426C41.7074 26.6622 42.936 26.1525 43.8422 25.2464C44.7483 24.3403 45.2579 23.1117 45.2593 21.8302V19.3608C46.1046 19.0513 46.8124 18.4514 47.2562 17.6682C47.7 16.885 47.8509 15.9695 47.6819 15.0853C47.5129 14.2011 47.0351 13.4058 46.3338 12.8414C45.6325 12.2771 44.7533 11.9804 43.8535 12.0045C42.9536 12.0285 42.0916 12.3717 41.4214 12.9727C40.7513 13.5738 40.3166 14.3935 40.1951 15.2854C40.0736 16.1774 40.2732 17.0835 40.7582 17.8419C41.2432 18.6003 41.982 19.1615 42.8426 19.4254V21.8302C42.8419 22.471 42.5871 23.0852 42.134 23.5383C41.681 23.9913 41.0667 24.2462 40.426 24.2469H36.814V12.6875C36.8119 10.7653 36.0474 8.92248 34.6882 7.5633C33.329 6.20411 31.4861 5.4396 29.564 5.4375H15.064C13.1418 5.4396 11.2989 6.20411 9.93976 7.56329C8.58057 8.92248 7.81606 10.7653 7.81396 12.6875V45.3125C7.81606 47.2347 8.58057 49.0775 9.93976 50.4367C11.2989 51.7959 13.1418 52.5604 15.064 52.5625H29.564C31.4861 52.5604 33.329 51.7959 34.6882 50.4367C36.0474 49.0775 36.8119 47.2347 36.814 45.3125V33.7531H40.426C41.0667 33.7538 41.681 34.0087 42.134 34.4617C42.5871 34.9148 42.8419 35.529 42.8426 36.1698V38.5746C41.982 38.8385 41.2432 39.3997 40.7582 40.1581C40.2732 40.9165 40.0736 41.8226 40.1951 42.7146C40.3166 43.6065 40.7513 44.4262 41.4214 45.0273C42.0916 45.6283 42.9536 45.9715 43.8535 45.9955C44.7533 46.0196 45.6325 45.7229 46.3338 45.1586C47.0351 44.5942 47.5129 43.7989 47.6819 42.9147C47.8509 42.0305 47.7 41.115 47.2562 40.3318C46.8124 39.5486 46.1046 38.9487 45.2593 38.6392ZM31.9806 32.625C31.9807 32.7837 31.9494 32.9408 31.8887 33.0875C31.828 33.2341 31.739 33.3673 31.6268 33.4795C31.5146 33.5917 31.3814 33.6807 31.2348 33.7414C31.0881 33.8021 30.931 33.8334 30.7723 33.8333H13.8556C13.6969 33.8334 13.5398 33.8021 13.3932 33.7414C13.2466 33.6807 13.1133 33.5917 13.0011 33.4795C12.8889 33.3673 12.7999 33.2341 12.7392 33.0875C12.6785 32.9408 12.6473 32.7837 12.6473 32.625V21.75C12.6473 21.5913 12.6785 21.4342 12.7392 21.2875C12.7999 21.1409 12.8889 21.0077 13.0011 20.8955C13.1133 20.7833 13.2466 20.6943 13.3932 20.6336C13.5398 20.5729 13.6969 20.5416 13.8556 20.5417H30.7723C30.931 20.5416 31.0881 20.5729 31.2348 20.6336C31.3814 20.6943 31.5146 20.7833 31.6268 20.8955C31.739 21.0077 31.828 21.1409 31.8887 21.2875C31.9494 21.4342 31.9807 21.5913 31.9806 21.75V32.625Z" fill="white"/>
</svg>
