<svg width="58" height="58" viewBox="0 0 58 58" fill="none" xmlns="http://www.w3.org/2000/svg">
<g clip-path="url(#clip0_42002_6262)">
<path d="M56.3278 21.7725C56.1533 21.8145 56.0024 21.9238 55.9082 22.0766C55.8139 22.2295 55.784 22.4133 55.8249 22.5882C56.3203 24.691 56.5712 26.844 56.5725 29.0044C56.5638 36.3144 53.656 43.3226 48.487 48.4916C43.318 53.6605 36.3099 56.5683 28.9999 56.5771C22.9959 56.5981 17.1531 54.6356 12.3792 50.9946C13.0202 50.0388 13.2763 48.8762 13.0962 47.7396C12.9161 46.603 12.3132 45.5764 11.4081 44.8656C10.5031 44.1549 9.36286 43.8124 8.21596 43.9068C7.06907 44.0013 6.00023 44.5257 5.22367 45.3749C4.4471 46.2242 4.02017 47.3355 4.02844 48.4863C4.03671 49.637 4.47957 50.7422 5.26826 51.5802C6.05696 52.4182 7.13322 52.9271 8.28135 53.0051C9.42949 53.083 10.5647 52.7242 11.4594 52.0005C16.4859 55.8701 22.6565 57.9583 28.9999 57.9364C33.3699 57.9317 37.6822 56.9382 41.6138 55.0303C45.5453 53.1224 48.9942 50.3495 51.702 46.9194C54.4097 43.4894 56.3062 39.4911 57.2494 35.224C58.1925 30.957 58.1579 26.5318 57.148 22.28C57.1277 22.1927 57.0904 22.1102 57.0382 22.0374C56.9859 21.9646 56.9198 21.9028 56.8435 21.8556C56.7673 21.8084 56.6825 21.7768 56.594 21.7626C56.5055 21.7483 56.415 21.7517 56.3278 21.7725Z" fill="white"/>
<path d="M1.42727 29.0045C1.42757 24.1 2.73599 19.2842 5.21763 15.0539C7.69927 10.8235 11.2643 7.33156 15.5452 4.9381C19.8261 2.54465 24.6679 1.33629 29.5714 1.43761C34.4749 1.53893 39.2627 2.94627 43.441 5.51452C43.0097 6.43721 42.9407 7.48821 43.2476 8.45937C43.5545 9.43053 44.215 10.251 45.0981 10.7583C45.9813 11.2656 47.0228 11.4227 48.0163 11.1986C49.0098 10.9744 49.8829 10.3852 50.4627 9.54783C51.0424 8.71043 51.2865 7.68584 51.1466 6.67699C51.0067 5.66814 50.4931 4.74862 49.7074 4.10055C48.9216 3.45247 47.9212 3.12311 46.9042 3.1777C45.8871 3.23229 44.9277 3.66685 44.2159 4.39531C39.8331 1.68593 34.8063 0.196095 29.655 0.0797644C24.5037 -0.0365658 19.4147 1.22483 14.9141 3.7336C10.4135 6.24236 6.66446 9.90747 4.05447 14.3502C1.44447 18.7928 0.0682025 23.8519 0.0678984 29.0045C0.0654617 30.7707 0.22625 32.5333 0.548211 34.2698C0.575846 34.4263 0.657807 34.568 0.779657 34.6699C0.901506 34.7719 1.05543 34.8276 1.2143 34.8272C1.25546 34.8271 1.29649 34.8226 1.33665 34.8136C1.51383 34.7816 1.67107 34.6806 1.77387 34.5328C1.87666 34.385 1.9166 34.2024 1.88493 34.0251C1.57949 32.3691 1.42629 30.6885 1.42727 29.0045Z" fill="white"/>
<path d="M24.9219 24.5141V24.9219H33.0781V24.5141C33.0147 19.0041 24.9853 19.0041 24.9219 24.5141Z" fill="white"/>
<path d="M48.0085 14.8806C40.3598 14.9576 33.001 10.2315 30.1871 8.19245C29.8416 7.94283 29.4262 7.80847 28.9999 7.80847C28.5737 7.80847 28.1583 7.94283 27.8127 8.19245C24.9988 10.2315 17.622 14.9395 9.99133 14.8806C9.72033 14.8779 9.45148 14.9288 9.20025 15.0305C8.94902 15.1321 8.72038 15.2824 8.52749 15.4728C8.3346 15.6632 8.18127 15.8898 8.07632 16.1397C7.97138 16.3895 7.9169 16.6577 7.91602 16.9287C7.92055 27.3914 10.014 42.3581 28.0801 51.5021C28.365 51.6474 28.6802 51.723 28.9999 51.723C29.3197 51.723 29.6349 51.6474 29.9198 51.5021C47.9859 42.3581 50.0793 27.3914 50.0838 16.9287C50.0798 16.382 49.8589 15.8593 49.4698 15.4753C49.0807 15.0913 48.5552 14.8774 48.0085 14.8806ZM36.4765 35.5703C36.4765 36.4716 36.1184 37.336 35.4811 37.9733C34.8438 38.6106 33.9794 38.9687 33.078 38.9687H24.9218C24.0205 38.9687 23.1561 38.6106 22.5187 37.9733C21.8814 37.336 21.5234 36.4716 21.5234 35.5703V28.3203C21.5237 27.6593 21.7168 27.0128 22.0789 26.4599C22.4411 25.907 22.9566 25.4717 23.5624 25.2073V24.5049C23.644 17.2323 34.3559 17.2323 34.4374 24.5049V25.2073C35.0432 25.4717 35.5587 25.907 35.9209 26.4599C36.2831 27.0128 36.4761 27.6593 36.4765 28.3203V35.5703Z" fill="white"/>
<path d="M30.1127 31.165C30.1026 31.1042 30.1055 31.0419 30.1211 30.9822C30.1367 30.9226 30.1647 30.8669 30.2033 30.8188C30.3551 30.5993 30.444 30.3425 30.4602 30.0761C30.4765 29.8098 30.4196 29.544 30.2957 29.3077C30.1718 29.0713 29.9856 28.8734 29.7573 28.7353C29.5289 28.5972 29.2671 28.5242 29.0003 28.5242C28.7334 28.5242 28.4716 28.5972 28.2433 28.7353C28.015 28.8734 27.8288 29.0713 27.7048 29.3077C27.5809 29.544 27.524 29.8098 27.5403 30.0761C27.5566 30.3425 27.6454 30.5993 27.7972 30.8188C27.8356 30.8664 27.8636 30.9215 27.8792 30.9806C27.8948 31.0397 27.8978 31.1015 27.8879 31.1618C27.7814 31.6924 27.48 33.2095 27.2675 34.2626C27.2417 34.3939 27.2453 34.5293 27.278 34.6591C27.3108 34.7889 27.3719 34.9099 27.4569 35.0132C27.5419 35.1166 27.6488 35.1999 27.7699 35.257C27.8909 35.3141 28.0232 35.3438 28.157 35.3437H29.8426C29.9767 35.3438 30.1092 35.3141 30.2304 35.2567C30.3516 35.1994 30.4586 35.1159 30.5437 35.0122C30.6287 34.9085 30.6897 34.7872 30.7222 34.6571C30.7547 34.527 30.758 34.3913 30.7317 34.2598L30.1127 31.165Z" fill="white"/>
</g>
<defs>
<clipPath id="clip0_42002_6262">
<rect width="58" height="58" fill="white"/>
</clipPath>
</defs>
</svg>
