<svg width="58" height="58" viewBox="0 0 58 58" fill="none" xmlns="http://www.w3.org/2000/svg">
<path d="M28.5801 22.6755V25.576C28.5801 28.4442 26.3925 30.8109 23.5982 31.0955V17.1559C26.3925 17.4405 28.5801 19.8074 28.5801 22.6755ZM22.9911 44.1713C11.3124 44.1713 1.81104 34.6701 1.81104 22.9914C1.81104 11.3126 11.3124 1.81128 22.9911 1.81128C34.6698 1.81128 44.1711 11.3126 44.1711 22.9914C44.1711 34.6701 34.6698 44.1713 22.9911 44.1713ZM40.1712 22.9914C40.1712 13.5182 32.4643 5.81124 22.9911 5.81124C13.518 5.81124 5.811 13.5182 5.811 22.9914C5.811 32.4645 13.518 40.1715 22.9911 40.1715C32.4643 40.1715 40.1712 32.4645 40.1712 22.9914ZM42.9185 40.0904L40.1117 37.2835C39.2548 38.3082 38.3079 39.255 37.2831 40.112L40.09 42.9189C40.1115 42.8956 40.1311 42.871 40.1538 42.8483L42.848 40.1541C42.8706 40.1315 42.8951 40.112 42.9184 40.0905L42.9185 40.0904ZM45.3595 40.955C45.1237 40.7193 44.8141 40.6014 44.5042 40.6014C44.1944 40.6014 43.8848 40.7193 43.649 40.955L40.9548 43.6492C40.4833 44.1208 40.4833 44.8882 40.9548 45.3598L50.8737 55.2788C52.088 56.4928 54.0639 56.493 55.2784 55.2788C56.4928 54.0643 56.4928 52.0884 55.2784 50.874L45.3595 40.955ZM17.4835 22.6755V25.576C17.4835 28.4442 19.6711 30.8109 22.4654 31.0955V17.1559C19.6711 17.4405 17.4835 19.8074 17.4835 22.6755ZM23.0318 13.7994C21.4625 13.7994 20.1851 15.071 20.1745 16.6376C21.0413 16.2258 22.01 15.9944 23.0318 15.9944C24.0536 15.9944 25.0222 16.2258 25.8891 16.6376C25.8784 15.0708 24.601 13.7994 23.0317 13.7994H23.0318ZM20.4196 13.6445C20.7119 13.3909 21.0394 13.1789 21.3958 13.0183L20.4646 12.0871V10.6967C20.4646 10.3852 20.211 10.1316 19.8963 10.1316C19.5848 10.1316 19.3311 10.3852 19.3311 10.6967V12.3215C19.3311 12.4661 19.3857 12.6137 19.4981 12.7229L20.4196 13.6445ZM31.0292 23.5669C31.087 23.5349 31.1416 23.5445 31.1897 23.5894L32.9109 25.3106C33.1293 25.5321 33.4889 25.5321 33.7105 25.3106C33.932 25.089 33.932 24.7326 33.7105 24.511L31.9893 22.7898C31.5815 22.382 30.9617 22.305 30.4639 22.5907L29.7125 23.0242V24.3151C29.7479 24.3023 29.7832 24.2893 29.8153 24.2701L31.0291 23.5668L31.0292 23.5669ZM16.3511 23.0692L15.5194 22.5907C15.0217 22.3049 14.4019 22.382 13.9974 22.7898L12.2762 24.511C12.0546 24.7326 12.0546 25.089 12.2762 25.3106C12.4978 25.5321 12.8541 25.5321 13.0757 25.3106L14.7969 23.5894C14.8419 23.5444 14.8997 23.5348 14.9543 23.5669L16.2034 24.2895C16.2516 24.3152 16.2997 24.3344 16.3511 24.3472V23.0692ZM16.592 20.8952C16.7012 20.5035 16.8456 20.1246 17.0222 19.7617H14.6524C14.6203 19.7617 14.5913 19.7553 14.5721 19.7393C14.5496 19.7232 14.5367 19.6975 14.5271 19.6686L13.5734 16.1107C13.4931 15.8088 13.1848 15.629 12.883 15.7093C12.5811 15.7896 12.4014 16.101 12.4817 16.4029L13.4354 19.9609C13.5092 20.237 13.6698 20.4714 13.8849 20.6352C14.1 20.8022 14.3666 20.8953 14.6524 20.8953H16.5919L16.592 20.8952ZM17.0222 28.4895C16.8456 28.1266 16.7011 27.7477 16.592 27.356H14.6525C14.0777 27.356 13.5832 27.7381 13.4355 28.2936L12.4818 31.8484C12.4015 32.1503 12.5814 32.4617 12.8831 32.542C13.185 32.6223 13.4933 32.4424 13.5735 32.1406L14.5272 28.5859C14.5433 28.5216 14.5883 28.4896 14.6525 28.4896H17.0223L17.0222 28.4895ZM29.0415 19.7616C29.2149 20.1244 29.3593 20.5034 29.4717 20.8951H31.331C31.9058 20.8951 32.4035 20.513 32.5513 19.9606L33.505 16.4027C33.5853 16.1008 33.4054 15.7894 33.1036 15.7091C32.8017 15.6288 32.4935 15.8087 32.41 16.1104L31.4595 19.6684C31.4434 19.7294 31.3984 19.7615 31.331 19.7615H29.0415V19.7616ZM29.4717 27.3559C29.3625 27.7476 29.2148 28.1265 29.0415 28.4894H31.331C31.3984 28.4894 31.4434 28.5214 31.4595 28.5856L32.41 32.1404C32.4935 32.4423 32.8017 32.6221 33.1036 32.5418C33.4055 32.4614 33.5853 32.15 33.505 31.8481L32.5513 28.2934C32.4035 27.7378 31.9058 27.3557 31.331 27.3557L29.4717 27.3559ZM24.6679 13.0182C25.0243 13.1787 25.3519 13.3907 25.6441 13.6444L26.5656 12.7229C26.6748 12.6137 26.7326 12.4659 26.7326 12.3215V10.6967C26.7326 10.3852 26.4789 10.1316 26.1642 10.1316C25.8527 10.1316 25.5991 10.3852 25.5991 10.6967V12.0871L24.6679 13.0182Z" fill="white"/>
</svg>
