<svg width="58" height="58" viewBox="0 0 58 58" fill="none" xmlns="http://www.w3.org/2000/svg">
<path fill-rule="evenodd" clip-rule="evenodd" d="M53.1479 29.2519C50.7423 30.4294 47.2358 31.4903 43.159 32.3568L42.8993 32.4119C42.8958 32.3865 42.8924 32.3612 42.8887 32.336C42.5183 29.7399 41.2572 27.3533 39.3213 25.5844C40.3257 25.4361 41.3048 25.2769 42.2584 25.1067C43.4634 24.8917 44.6598 24.6544 45.8476 24.3947C45.986 25.622 46.1295 26.9217 46.2781 28.2938C46.2988 28.4647 46.3859 28.6205 46.5205 28.7276C46.6552 28.8348 46.8266 28.8847 46.9977 28.8665C47.1688 28.8483 47.3259 28.7635 47.435 28.6305C47.5441 28.4974 47.5965 28.3268 47.5808 28.1554C47.3829 26.3317 47.1944 24.6359 47.0152 23.0678C49.7306 23.2772 52.0071 23.6676 53.6622 24.217C55.2316 24.7381 56.1851 25.3579 56.3316 26.0468H56.3326L56.3359 26.0628C56.5411 27.0941 55.3223 28.1876 53.1479 29.2519ZM39.6936 39.964L39.671 39.9923L39.6721 39.9931C38.073 42.1128 35.6993 43.5126 33.0704 43.8863C30.4416 44.2599 27.7719 43.577 25.6454 41.9868L25.6172 41.9642L25.6164 41.9653C23.5221 40.3859 22.1292 38.0494 21.7361 35.4559C21.3431 32.8623 21.9809 30.218 23.5132 28.0889C25.0455 25.9599 27.3504 24.5153 29.9345 24.0644C32.5186 23.6136 35.1765 24.1923 37.3392 25.6767C37.3486 25.6835 37.358 25.69 37.3678 25.6963C37.4699 25.7671 37.5712 25.8401 37.6717 25.9152C38.7279 26.7037 39.6179 27.6932 40.2906 28.8268C40.9632 29.9603 41.4052 31.2157 41.5912 32.5206C41.622 32.734 41.6457 32.9483 41.6626 33.1635C41.6594 33.2185 41.6632 33.2738 41.6739 33.3278C41.8258 35.7052 41.1235 38.0586 39.6936 39.964ZM39.8093 32.0612C39.8034 32.0179 39.7931 31.9752 39.7786 31.9339C39.25 29.8017 37.9038 27.9631 36.0308 26.8153C34.1578 25.6674 31.9084 25.3025 29.7686 25.7994C29.7251 25.8053 29.6824 25.8155 29.641 25.83C27.4899 26.3608 25.6373 27.723 24.4892 29.6179C23.3412 31.5128 22.9915 33.7856 23.5168 35.938C24.0422 38.0903 25.3997 39.9465 27.2917 41.0993C29.1837 42.2521 31.4556 42.6076 33.6093 42.0877H33.611C35.7583 41.5729 37.615 40.2301 38.7761 38.3519C39.9373 36.4737 40.3087 34.2125 39.8093 32.0616V32.0612ZM22.7469 25.4636H23.565C23.7519 25.4624 23.9412 25.4606 24.133 25.4583C25.998 23.8063 28.355 22.8141 30.84 22.6349C33.325 22.4557 35.7999 23.0994 37.8827 24.4666C39.2674 24.2787 40.6506 24.0613 42.0323 23.8146C43.2935 23.5897 44.5156 23.3473 45.6986 23.0873C45.674 22.8733 45.6496 22.6618 45.6254 22.453C45.6239 22.4416 45.6226 22.4311 45.6215 22.42C45.5128 21.4813 45.4068 20.5888 45.3037 19.7422C41.6613 20.5473 37.9771 21.1495 34.268 21.5461C30.128 21.9921 25.9668 22.2143 21.8028 22.2117C20.3322 22.2117 18.839 22.1829 17.3232 22.1253C16.0221 22.0763 14.7531 22.008 13.5162 21.9206C13.3999 22.9166 13.2801 23.9671 13.1566 25.0721C14.6039 25.1925 16.0789 25.286 17.5817 25.3526C19.2517 25.4261 20.9736 25.4631 22.7473 25.4636H22.7469ZM22.5768 27.1528C22.6729 27.0244 22.7711 26.8988 22.8714 26.776L22.7477 26.7768C21.0155 26.7768 19.2748 26.738 17.5254 26.6604C16.0092 26.5936 14.5048 26.4975 13.0123 26.3723C12.9436 26.996 12.8735 27.6366 12.802 28.2941C12.7837 28.4668 12.6974 28.6252 12.5623 28.7344C12.4272 28.8436 12.2542 28.8946 12.0815 28.8762C11.9087 28.8579 11.7503 28.7716 11.6411 28.6365C11.532 28.5014 11.4809 28.3284 11.4993 28.1556C11.644 26.823 11.7835 25.5591 11.9178 24.3638C9.3115 24.5362 6.86938 25.0435 4.99277 25.7382C3.10097 26.4382 1.84219 27.2752 1.70013 28.0705C1.6617 28.2774 1.64195 28.4873 1.64111 28.6978C1.64519 29.9498 2.4308 30.9844 3.80025 31.8228C5.29307 32.737 7.45278 33.4117 10.0559 33.8767C13.0381 34.4091 16.5709 34.6613 20.336 34.6785C20.1595 31.9827 20.9545 29.3129 22.5768 27.1528ZM21.8032 20.8983C25.9208 20.902 30.0356 20.6834 34.1296 20.2434C37.8315 19.8474 41.5083 19.2436 45.1425 18.435C44.8858 16.4 44.643 14.6495 44.4061 13.1566C43.8907 9.91193 43.4093 7.90107 42.8768 6.83555C41.4646 6.26325 39.6573 6.04575 37.7091 6.08166C35.2962 6.12618 32.6736 6.56209 30.307 7.19862C29.7752 7.34509 29.2259 7.41819 28.6743 7.41589C28.1209 7.41045 27.5709 7.32939 27.0394 7.17494C24.9877 6.59109 22.9874 6.18067 21.1126 6.09514C19.3533 6.01483 17.6976 6.21919 16.2049 6.83464C15.6725 7.89949 15.1911 9.91113 14.6756 13.1568C14.3576 15.1585 14.0299 17.6237 13.6711 20.6168C14.9086 20.7039 16.1416 20.7708 17.3701 20.8173C18.7937 20.8709 20.2712 20.8979 21.8028 20.8983H21.8032ZM35.3487 27.933C34.5586 27.4471 33.6801 27.1221 32.7639 26.9767C31.8477 26.8313 30.9118 26.8685 30.01 27.0859C28.3597 27.4833 26.9076 28.4615 25.9194 29.8417C24.9312 31.2219 24.473 32.9118 24.6286 34.6021C27.0315 34.5093 29.4843 34.3334 31.912 34.0855C34.213 33.8504 36.49 33.5499 38.679 33.1933C38.6463 32.8932 38.5945 32.5955 38.524 32.302C38.3086 31.4004 37.9171 30.5503 37.3722 29.8006C36.8272 29.0508 36.1394 28.4161 35.3483 27.933H35.3487ZM41.0903 40.2551C40.9854 40.4117 40.8761 40.5666 40.7625 40.7196L40.7639 40.7206L40.7413 40.7489C40.4904 41.0841 40.2213 41.4053 39.9354 41.7111L43.9156 44.7244L43.9184 44.7206L45.0285 43.2367L41.0903 40.2551ZM53.768 48.2251L47.7966 43.7564C47.5964 43.6066 47.3545 43.5227 47.1045 43.5161C46.8514 43.509 46.6023 43.5799 46.3908 43.7191H46.3899C46.332 43.7576 46.2773 43.8008 46.2267 43.8485C46.1762 43.8958 46.1298 43.9475 46.0881 44.0028L44.9637 45.5053C44.876 45.623 44.8107 45.7558 44.7711 45.8971V45.8979C44.703 46.1376 44.7088 46.3923 44.7879 46.6286C44.8659 46.862 45.0132 47.0661 45.2102 47.2135L51.181 51.6822C51.4411 51.8738 51.7661 51.9553 52.0858 51.9092C52.4055 51.863 52.6942 51.6929 52.8894 51.4356L54.0147 49.9322C54.2058 49.672 54.287 49.3472 54.2407 49.0278C54.1945 48.7083 54.0244 48.4199 53.7674 48.2247L53.768 48.2251Z" fill="white"/>
</svg>
