<svg preserveAspectRatio="none" width="100%" height="100%" overflow="visible" style="display: block;" viewBox="0 0 41 41" fill="none" xmlns="http://www.w3.org/2000/svg">
<g id="secure 1">
<path id="Vector" d="M38.3058 5.73821C38.2322 5.20959 37.8518 4.77476 37.3377 4.63184L20.8591 0.0491285C20.6242 -0.0162571 20.376 -0.0162571 20.1409 0.0491285L3.66231 4.63184C3.14816 4.77476 2.76781 5.20941 2.69421 5.73821C2.59863 6.42548 0.418218 22.664 6.01083 30.7421C11.5968 38.8107 19.8374 40.8783 20.1854 40.9625C20.2888 40.9875 20.3942 40.9998 20.5 40.9998C20.6058 40.9998 20.7112 40.9873 20.8146 40.9625C21.1628 40.8783 29.4033 38.8107 34.9892 30.7421C40.5818 22.6642 38.4014 6.42566 38.3058 5.73821ZM31.1266 15.2184L19.8865 26.4585C19.625 26.72 19.282 26.851 18.9391 26.851C18.5963 26.851 18.2533 26.7202 17.9918 26.4585L11.0421 19.5089C10.7908 19.2577 10.6496 18.9168 10.6496 18.5615C10.6496 18.2061 10.7909 17.8653 11.0421 17.6141L12.422 16.2342C12.9453 15.7111 13.7937 15.7109 14.3168 16.2342L18.9391 20.8566L27.852 11.9436C28.1031 11.6922 28.444 11.5511 28.7993 11.5511C29.1547 11.5511 29.4955 11.6922 29.7467 11.9436L31.1266 13.3235C31.6499 13.8467 31.6499 14.6951 31.1266 15.2184Z" fill="var(--fill-0, white)"/>
</g>
</svg>
